<svg width="40" height="40" viewBox="0 0 40 40" fill="none" xmlns="http://www.w3.org/2000/svg">
<rect width="40" height="40" rx="4" fill="white"/>
<rect width="40" height="40" rx="4" stroke="#7E1701"/>
<path d="M19.9199 30.7697C16.3808 30.7285 12.9473 29.1337 10.1365 26.2254C10.073 26.1634 10.0119 26.0972 9.95332 26.0269C9.89647 25.9521 9.84435 25.8645 9.9091 25.7492C9.91882 25.7261 9.93196 25.706 9.94766 25.6901C9.96335 25.6741 9.98127 25.6627 10.0004 25.6565C10.0195 25.6503 10.0393 25.6494 10.0586 25.654C10.078 25.6586 10.0964 25.6684 10.1128 25.683C10.2297 25.7684 10.3513 25.8454 10.4713 25.9287C12.5806 27.3987 14.852 28.3974 17.1973 28.8862C19.599 29.3423 22.0439 29.1471 24.3892 28.3118C25.507 27.9436 26.5988 27.4434 27.6519 26.8169L27.7435 26.7615C27.9251 26.6568 28.1083 26.6312 28.2172 26.9045C28.3262 27.1779 28.2094 27.3573 28.042 27.5131C26.9768 28.4886 25.8123 29.2489 24.585 29.7703C23.0771 30.4252 21.5037 30.7623 19.9199 30.7697Z" fill="#7E1701"/>
<path d="M27.8295 26.0428C27.3801 26.0457 26.9315 26.0794 26.4868 26.1438C26.3701 26.1541 26.2209 26.2175 26.1746 26.06C26.1283 25.9024 26.2689 25.851 26.3701 25.786C27.1098 25.3333 27.9753 25.1292 28.8397 25.2038C29.1432 25.2131 29.444 25.265 29.7331 25.3579C29.8533 25.3857 29.959 25.4568 30.0299 25.5576C30.1008 25.6584 30.1319 25.7818 30.1173 25.9041C30.035 27.0754 29.656 28.1303 28.8156 28.9762C28.7247 29.0687 28.615 29.204 28.4726 29.1149C28.3303 29.0259 28.4504 28.8923 28.4898 28.7861C28.7398 28.1564 28.9343 27.506 29.0712 26.8425C29.1655 26.2791 29.0231 26.0873 28.4418 26.0445C28.2428 26.0291 28.0353 26.0428 27.8295 26.0428Z" fill="#7E1701"/>
<path d="M21.5648 18.1953C21.5648 17.8328 21.2706 17.536 20.9086 17.5558C19.0945 17.6548 17.3836 18.2308 17.3836 20.3711C17.3836 21.5782 18.0128 22.4081 19.0917 22.4081C19.8838 22.4081 20.5915 21.9223 21.0382 21.1301C21.5919 20.1569 21.5648 19.244 21.5648 18.1485M24.3871 24.9582C24.3851 24.9557 24.3814 24.9554 24.3789 24.9575C24.2896 25.0326 24.1798 25.0792 24.0636 25.0911C24.0055 25.0971 23.9472 25.0943 23.8906 25.083C23.7734 25.0597 23.622 24.9381 23.5318 24.8597C22.6337 24.0792 21.383 24.0185 20.3382 24.588C19.5247 25.0314 18.6721 25.1906 17.5118 25.1906C15.1609 25.1906 13.3291 23.739 13.3291 20.8344C13.3291 18.571 14.5604 17.0213 16.3092 16.2669C17.7092 15.6467 19.6417 15.5006 21.2065 15.3345C21.4109 15.3128 21.5648 15.14 21.5648 14.9345C21.5648 14.2706 21.6161 13.4829 21.2268 12.9095C20.8842 12.395 20.2324 12.1822 19.6575 12.1822C18.5922 12.1822 17.6416 12.7285 17.4092 13.8617C17.3822 14.0065 17.3092 14.1504 17.2037 14.2483C17.0525 14.3886 16.8233 14.3606 16.6182 14.3386L14.2103 14.0805C14.1437 14.0713 14.0796 14.0485 14.022 14.0137C13.9644 13.9788 13.9146 13.9325 13.8756 13.8777C13.8366 13.8228 13.8092 13.7606 13.7952 13.6948C13.7811 13.629 13.7807 13.561 13.7939 13.495C14.4185 10.2086 17.3866 9.21875 20.0438 9.21875C21.4018 9.21875 23.1808 9.58088 24.2552 10.61C25.6132 11.8805 25.4849 13.5735 25.4849 15.4174V19.7736C25.4849 21.0818 26.0281 21.6567 26.5412 22.3644C26.7222 22.6149 26.7614 22.9182 26.5336 23.1068C25.9647 23.5809 24.9545 24.4603 24.3953 24.9589C24.3929 24.9611 24.3892 24.9607 24.3871 24.9582Z" fill="#7E1701"/>
</svg>
