<svg width="40" height="40" viewBox="0 0 40 40" fill="none" xmlns="http://www.w3.org/2000/svg">
<g clip-path="url(#clip0_3338_7164)">
<path d="M39.9942 10.2087C39.9942 8.97875 39.8904 7.75375 39.5967 6.55625C39.0692 4.375 37.8254 2.70875 35.9642 1.485C35.0067 0.86 33.9529 0.47625 32.8329 0.27375C31.9728 0.123272 31.1022 0.0405179 30.2292 0.02625C30.1642 0.02 30.0929 0.00625 30.0204 0H9.98166C9.72791 0.02 9.47416 0.0325 9.22041 0.045C7.97666 0.11625 6.74041 0.24625 5.56791 0.715C3.34166 1.59375 1.73291 3.13 0.795405 5.34375C0.470405 6.0925 0.306655 6.88625 0.190405 7.69375C0.0929053 8.345 0.0404053 9.0025 0.0216553 9.66C0.0216553 9.7125 0.00915527 9.76375 0.00915527 9.81625V30.1875L0.0479053 30.8912C0.132905 32.2525 0.307905 33.6 0.881655 34.85C1.96291 37.2137 3.77916 38.7687 6.27291 39.5175C6.96916 39.7325 7.69916 39.83 8.42791 39.895C9.35291 39.9862 10.2767 39.9987 11.2017 39.9987H29.5867C30.4592 39.9987 31.3317 39.94 32.2042 39.83C33.5779 39.6538 34.8667 39.25 36.0329 38.4825C37.4134 37.5882 38.5019 36.3094 39.1642 34.8037C39.4767 34.1 39.6529 33.3525 39.7829 32.5962C39.9717 31.47 40.0104 30.33 40.0104 29.1913C40.0042 22.8625 40.0104 16.535 40.0042 10.2062L39.9942 10.2087ZM29.2904 16.855V26.3738C29.2904 27.07 29.1929 27.7537 28.8804 28.385C28.3992 29.3675 27.6179 29.9862 26.5692 30.2862C25.9882 30.4527 25.3893 30.5488 24.7854 30.5725C24.026 30.6174 23.2766 30.3815 22.6798 29.9096C22.0831 29.4378 21.6807 28.763 21.5492 28.0138C21.4287 27.3396 21.5328 26.6445 21.8456 26.0353C22.1583 25.4261 22.6624 24.9363 23.2804 24.6412C23.8142 24.3812 24.3942 24.225 24.9729 24.1075C25.6042 23.9712 26.2354 23.8475 26.8604 23.7037C27.3229 23.6 27.6217 23.32 27.7129 22.8437C27.7392 22.74 27.7454 22.6287 27.7454 22.525V13.45C27.7432 13.3464 27.728 13.2436 27.7004 13.1438C27.6354 12.89 27.4529 12.74 27.1929 12.7525C26.9254 12.765 26.6654 12.8112 26.4054 12.8638C25.1354 13.1112 23.8667 13.365 22.6029 13.625L16.4379 14.8688C16.4117 14.875 16.3792 14.8888 16.3529 14.8888C15.8904 15.0188 15.7279 15.2275 15.7079 15.7087C15.7017 15.78 15.7079 15.8525 15.7079 15.9238C15.7017 20.26 15.7079 24.5962 15.7017 28.9312C15.7017 29.635 15.6229 30.325 15.3442 30.975C14.8817 32.0425 14.0617 32.7137 12.9554 33.0325C12.3706 33.2027 11.7667 33.2989 11.1579 33.3188C9.56291 33.3775 8.23416 32.3162 7.96166 30.7475C7.72666 29.3937 8.34541 27.935 9.88166 27.2838C10.4804 27.0363 11.0992 26.9 11.7304 26.77L13.1629 26.4775C13.8004 26.3412 14.1329 25.9375 14.1654 25.2862V10.2338C14.1654 10.025 14.1917 9.8175 14.2367 9.615C14.3542 9.14 14.6929 8.86625 15.1479 8.755C15.5717 8.64375 16.0079 8.56625 16.4367 8.475C17.6604 8.2275 18.8779 7.98 20.1017 7.73875L23.8842 6.97C25.0042 6.74875 26.1167 6.52125 27.2367 6.3C27.6017 6.22875 27.9729 6.15 28.3429 6.12375C28.8567 6.07875 29.2154 6.40375 29.2679 6.925C29.2804 7.04875 29.2879 7.1725 29.2879 7.29625V16.8475L29.2904 16.855Z" fill="#FBF7F3"/>
</g>
<defs>
<clipPath id="clip0_3338_7164">
<rect width="40" height="40" fill="white"/>
</clipPath>
</defs>
</svg>
