<svg width="34" height="35" viewBox="0 0 34 35" fill="none" xmlns="http://www.w3.org/2000/svg">
<path d="M16.9999 0.833252C7.81659 0.833252 0.333252 8.31659 0.333252 17.4999C0.333252 26.6833 7.81659 34.1666 16.9999 34.1666C26.1833 34.1666 33.6666 26.6833 33.6666 17.4999C33.6666 8.31659 26.1833 0.833252 16.9999 0.833252ZM21.6499 18.3833L15.7666 24.2666C15.5166 24.5166 15.1999 24.6333 14.8833 24.6333C14.5666 24.6333 14.2499 24.5166 13.9999 24.2666C13.5166 23.7833 13.5166 22.9833 13.9999 22.4999L18.9999 17.4999L13.9999 12.4999C13.5166 12.0166 13.5166 11.2166 13.9999 10.7333C14.4833 10.2499 15.2833 10.2499 15.7666 10.7333L21.6499 16.6166C22.1499 17.0999 22.1499 17.8999 21.6499 18.3833Z" fill="#FBF7F3"/>
</svg>
