<svg width="34" height="35" viewBox="0 0 34 35" fill="none" xmlns="http://www.w3.org/2000/svg">
<path d="M17 0.833252C26.1833 0.833252 33.6666 8.31659 33.6666 17.4999C33.6666 26.6833 26.1833 34.1666 17 34.1666C7.81662 34.1666 0.33329 26.6833 0.33329 17.4999C0.33329 8.31659 7.81662 0.833252 17 0.833252ZM12.35 18.3833L18.2333 24.2666C18.4833 24.5166 18.8 24.6333 19.1166 24.6333C19.4333 24.6333 19.75 24.5166 20 24.2666C20.4833 23.7833 20.4833 22.9833 20 22.4999L15 17.4999L20 12.4999C20.4833 12.0166 20.4833 11.2166 20 10.7333C19.5166 10.2499 18.7166 10.2499 18.2333 10.7333L12.35 16.6166C11.85 17.0999 11.85 17.8999 12.35 18.3833Z" fill="#FBF7F3"/>
</svg>
