<svg width="40" height="40" viewBox="0 0 40 40" fill="none" xmlns="http://www.w3.org/2000/svg">
<g clip-path="url(#clip0_3338_7172)">
<path d="M0.551685 18.9633C0.551685 18.9633 1.45502 18.815 1.82669 19.2033C2.19835 19.5917 1.95502 20.3967 1.46002 20.41C0.966685 20.4267 0.510019 20.515 0.186685 20.17C0.102793 20.0754 0.0445242 19.961 0.0174349 19.8375C-0.00965441 19.714 -0.00466091 19.5856 0.0319392 19.4647C0.0685394 19.3437 0.135526 19.234 0.226511 19.1463C0.317496 19.0585 0.429446 18.9955 0.551685 18.9633ZM10.3534 24.45C10.2667 24.4667 10.175 24.4217 10.08 24.3533C9.43335 23.45 9.19835 20.365 8.90169 20.1817C8.59335 19.9917 7.47835 21.8917 5.25835 21.6867C4.33002 21.6017 3.38502 21 2.83002 20.5833C2.88002 19.8833 2.89002 18.245 4.27169 18.7783C5.11169 19.1017 6.55002 19.9883 7.81335 18.395C9.21002 16.6317 9.98002 17.145 10.4417 17.5283C10.9034 17.9117 10.595 19.9033 11.285 19.345C11.9734 18.7883 14.755 15.3283 14.755 15.3283C14.755 15.3283 16.9084 13.1567 17.2384 15.44C17.5667 17.7233 18.9717 20.2533 19.3434 20.1817C19.715 20.11 24.0467 11.3067 24.6684 10.7383C25.2884 10.17 27.3767 10.245 27.2767 11.7017C27.1767 13.1583 26.965 22.215 26.965 22.215C26.965 22.215 26.72 24.7667 27.12 23.4033C27.285 22.8367 27.4634 22.3283 27.685 21.7317C28.9665 17.6433 30.2321 13.5499 31.4817 9.45166L32.01 7.635C32.0551 7.44919 32.109 7.26564 32.1717 7.085C32.2484 6.82833 32.2984 6.66 32.315 6.615C32.355 6.50166 32.4684 6.415 32.6284 6.35333C32.79 6.25166 32.9617 6.24666 33.1567 6.24166C33.66 6.19666 34.3067 6.26166 34.89 6.42833C35.06 6.42833 35.2434 6.49 35.4184 6.615C35.5934 6.74 35.4284 6.615 35.4434 6.63166C35.4484 6.63166 35.4517 6.63166 35.4567 6.64833C35.5181 6.69344 35.573 6.74671 35.62 6.80666C35.6217 6.80666 35.6234 6.80666 35.6267 6.82333C35.6575 6.86208 35.6859 6.90272 35.7117 6.945C36.0384 7.42166 36.2367 8.30166 36.0367 9.86166C35.5367 13.7533 35.1517 21.7617 35.1517 21.7617C35.1517 21.7617 35.0734 22.1433 35.8767 20.4567C35.905 20.3983 35.94 20.3467 35.9734 20.2933C36.0307 20.2539 36.0818 20.2062 36.125 20.1517C36.6217 19.5617 37.9534 19.2133 38.8767 19.2217C39.2667 19.2683 39.5934 19.3667 39.7884 19.4883C40.1517 20.0433 39.9384 22.0917 39.9384 22.0917C39.1684 22.1633 37.7034 22.5767 37.1834 22.6533C36.665 22.73 35.875 26.1033 34.7784 25.7583C33.6817 25.4133 31.2367 23.88 31.2367 23.67C31.3112 22.6303 31.3957 21.5914 31.49 20.5533C31.4897 20.5456 31.4897 20.5378 31.49 20.53C31.5267 20.075 31.495 19.8767 31.285 20.33C31.1034 20.7217 30.3167 23.2233 29.4384 25.9483C29.345 26.1867 27.6867 31.2083 27.4684 31.82C27.2084 32.5317 26.99 33.075 26.84 33.355C26.61 33.6667 26.3 33.8617 25.8684 33.7317C24.7917 33.405 23.4267 31.915 23.4134 31.5483C23.3884 29.4633 23.5134 18.2583 23.01 19.1917C22.4917 20.15 18.46 26.7933 18.46 26.7933C18.3934 26.81 18.3434 26.81 18.2834 26.81C17.9967 26.7783 17.555 26.6867 17.4334 26.4133C17.4267 26.3967 17.4167 26.3833 17.4117 26.3667L17.3884 26.3C17.3334 26.1167 17.3117 25.9167 17.2634 25.755C17.0206 24.9615 16.7633 24.1724 16.4917 23.3883C16.0267 21.8733 15.5484 20.3267 15.47 20.155C15.3167 19.8217 15.0917 19.9617 14.8917 20.155C13.9917 20.9183 12.08 24.2883 10.3534 24.4717" fill="#FBF7F3"/>
</g>
<defs>
<clipPath id="clip0_3338_7172">
<rect width="40" height="40" fill="white"/>
</clipPath>
</defs>
</svg>
