<svg width="40" height="30" viewBox="0 0 40 30" fill="none" xmlns="http://www.w3.org/2000/svg">
<g clip-path="url(#clip0_3305_5904)">
<path d="M23.5294 18.5294V22.451H29.4118V28.3333H33.3333V22.451H39.2157V18.5294H33.3333V12.647H29.4118V18.5294M23.4706 11.8823C23.2353 9.27448 20.7647 6.70585 17.6471 6.76468C14.3137 6.8235 11.7647 9.3137 11.7647 12.647C11.7647 15.9804 14.3137 18.4117 17.6471 18.5294C18.3922 18.5294 19.1569 18.3725 19.8824 18.0784C20.4118 15.9215 21.2941 13.8823 23.4706 11.8823ZM19.6078 20.4902H7.84314C7.84314 19.4501 7.42997 18.4526 6.69454 17.7172C5.9591 16.9818 4.96163 16.5686 3.92157 16.5686V8.72546C6.09804 8.72546 7.84314 6.98036 7.84314 4.80389H27.451C27.451 5.84396 27.8641 6.84142 28.5996 7.57686C29.335 8.3123 30.3325 8.72546 31.3725 8.72546V8.84311C32.6863 8.84311 34 9.0784 35.2941 9.50977V0.882324H0V24.4117H20.2353C19.8187 23.1463 19.6068 21.8224 19.6078 20.4902Z" fill="white"/>
</g>
<defs>
<clipPath id="clip0_3305_5904">
<rect width="40" height="28.2353" fill="white" transform="translate(0 0.882324)"/>
</clipPath>
</defs>
</svg>
