<svg width="40" height="40" viewBox="0 0 40 40" fill="none" xmlns="http://www.w3.org/2000/svg">
<path d="M31.35 6.93335V11.9833H40V6.93335H31.35ZM10.45 13.9667V19.0117H19.0983V13.9667H10.4483H10.45ZM31.35 13.9667V19.0117H40V13.9667H31.35ZM10.45 20.99V26.035H19.0983V20.99H10.4483H10.45ZM20.9017 20.99V26.035H29.5517V20.99H20.9017ZM31.3517 20.99V26.035H40V20.99H31.35H31.3517ZM0 28.0167V33.065H8.65V28.015H0V28.0167ZM10.45 28.0167V33.065H19.0983V28.015H10.4483L10.45 28.0167ZM20.9017 28.0167V33.065H29.5517V28.015H20.9017V28.0167ZM31.3517 28.0167V33.065H40V28.015H31.35L31.3517 28.0167Z" fill="white"/>
</svg>
