<svg width="40" height="40" viewBox="0 0 40 40" fill="none" xmlns="http://www.w3.org/2000/svg">
<g clip-path="url(#clip0_422_3329)">
<path d="M12.75 34.8491C12.7 34.8491 12.6333 34.8824 12.5833 34.8824C9.34998 33.2824 6.71664 30.6324 5.09998 27.3991C5.09998 27.3491 5.13331 27.2824 5.13331 27.2324C7.16664 27.8324 9.26664 28.2824 11.35 28.6324C11.7166 30.7324 12.15 32.8158 12.75 34.8491Z" fill="white"/>
<path d="M34.9 27.4158C33.25 30.7324 30.5 33.4158 27.15 35.0324C27.7833 32.9158 28.3167 30.7824 28.6667 28.6324C30.7667 28.2824 32.8333 27.8324 34.8667 27.2324C34.85 27.2991 34.9 27.3658 34.9 27.4158Z" fill="white"/>
<path d="M35.0333 12.8501C32.9333 12.2168 30.8167 11.7001 28.6667 11.3335C28.3167 9.18346 27.8 7.05013 27.15 4.9668C30.6 6.6168 33.3833 9.40013 35.0333 12.8501Z" fill="white"/>
<path d="M12.75 5.14961C12.15 7.18294 11.7167 9.24961 11.3667 11.3496C9.21667 11.6829 7.08334 12.2163 4.96667 12.8496C6.58334 9.49961 9.26667 6.74961 12.5833 5.09961C12.6333 5.09961 12.7 5.14961 12.75 5.14961Z" fill="white"/>
<path d="M25.8167 10.984C21.95 10.5507 18.05 10.5507 14.1833 10.984C14.6 8.70065 15.1333 6.41732 15.8833 4.21732C15.9167 4.08398 15.9 3.98398 15.9167 3.85065C17.2333 3.53398 18.5833 3.33398 20 3.33398C21.4 3.33398 22.7667 3.53398 24.0667 3.85065C24.0833 3.98398 24.0833 4.08398 24.1167 4.21732C24.8667 6.43398 25.4 8.70065 25.8167 10.984Z" fill="white"/>
<path d="M10.9833 25.8169C8.68331 25.4003 6.41665 24.8669 4.21665 24.1169C4.08331 24.0836 3.98331 24.1003 3.84998 24.0836C3.53331 22.7669 3.33331 21.4169 3.33331 20.0003C3.33331 18.6003 3.53331 17.2336 3.84998 15.9336C3.98331 15.9169 4.08331 15.9169 4.21665 15.8836C6.43331 15.1503 8.68331 14.6003 10.9833 14.1836C10.5666 18.0503 10.5666 21.9503 10.9833 25.8169Z" fill="white"/>
<path d="M36.6667 20.0003C36.6667 21.4169 36.4667 22.7669 36.15 24.0836C36.0167 24.1003 35.9167 24.0836 35.7833 24.1169C33.5667 24.8503 31.3 25.4003 29.0167 25.8169C29.45 21.9503 29.45 18.0503 29.0167 14.1836C31.3 14.6003 33.5833 15.1336 35.7833 15.8836C35.9167 15.9169 36.0167 15.9336 36.15 15.9336C36.4667 17.2503 36.6667 18.6003 36.6667 20.0003Z" fill="white"/>
<path d="M25.8167 29.0176C25.4 31.3176 24.8667 33.5842 24.1167 35.7842C24.0833 35.9176 24.0833 36.0176 24.0667 36.1509C22.7667 36.4676 21.4 36.6676 20 36.6676C18.5833 36.6676 17.2333 36.4676 15.9167 36.1509C15.9 36.0176 15.9167 35.9176 15.8833 35.7842C15.15 33.5676 14.6 31.3176 14.1833 29.0176C16.1167 29.2342 18.05 29.3842 20 29.3842C21.95 29.3842 23.9 29.2342 25.8167 29.0176Z" fill="white"/>
<path d="M26.2722 26.2729C22.1037 26.7988 17.8963 26.7988 13.7278 26.2729C13.2019 22.1044 13.2019 17.8969 13.7278 13.7284C17.8963 13.2025 22.1037 13.2025 26.2722 13.7284C26.7982 17.8969 26.7982 22.1044 26.2722 26.2729Z" fill="white"/>
</g>
<defs>
<clipPath id="clip0_422_3329">
<rect width="40" height="40" fill="white"/>
</clipPath>
</defs>
</svg>
