<svg width="40" height="40" viewBox="0 0 40 40" fill="none" xmlns="http://www.w3.org/2000/svg">
<path d="M1.46716 1.52344V7.74656C4.9581 8.18266 7.83568 9.69703 10.581 11.4306L8.6474 12.998L16.5992 17.0531L14.4164 8.32031L12.3926 9.96094C10.8125 6.83516 9.05052 3.88828 6.70896 1.52344H1.46716ZM23.1372 1.52344C21.9165 3.7707 20.8554 6.06453 19.8731 8.41062L17.5145 7.91016L19.5411 16.6797L24.7801 9.45312L22.4683 8.9625C25.069 6.24789 27.7493 3.66617 30.9106 1.52344H23.1372ZM38.5669 8.855C35.599 9.04891 32.9387 10.3923 30.3614 12.0508L29.3872 9.50938L23.1323 15.9815L32.0459 16.4453L31.0108 13.7451C33.5295 13.6721 36.0481 13.8878 38.5669 15.415V8.855ZM23.4083 18.8573C22.9958 18.8667 22.6106 19.0461 22.085 19.607L21.5722 20.1513L21.04 19.6263C20.4629 19.0576 20.0075 18.9005 19.5458 18.9209C19.0843 18.9412 18.5415 19.1839 17.9345 19.6752L17.4487 20.0682L16.9873 19.6484C16.292 19.0193 15.6994 18.8329 15.1319 18.8622C14.7187 18.8836 14.2901 19.0392 13.8623 19.3114L17.0629 25.0683C18.2703 25.8067 20.7374 26.0845 22.434 25.2295L25.5273 19.4995C24.9406 19.2602 24.4133 19.0149 23.9575 18.9209C23.7925 18.8867 23.6394 18.8618 23.4911 18.8573C23.4635 18.8566 23.4359 18.8566 23.4083 18.8573ZM16.3794 26.3722C14.9704 27.3677 13.839 29.0845 13.4008 31.5991C12.9762 34.0363 13.6452 35.6823 14.8291 36.8041C16.0131 37.926 17.7902 38.5023 19.5947 38.4789C21.3994 38.4555 23.1991 37.8297 24.4092 36.687C25.6194 35.5443 26.3037 33.9194 25.9156 31.5942C25.5143 29.1913 24.4781 27.5202 23.1664 26.5088C20.9412 27.685 18.159 27.435 16.3794 26.372V26.3722Z" fill="white"/>
</svg>
