<svg width="40" height="40" viewBox="0 0 40 40" fill="none" xmlns="http://www.w3.org/2000/svg">
<path d="M29.2167 12.9507C29.1 12.934 28.9833 12.934 28.8667 12.9507C26.2833 12.8673 24.2333 10.7507 24.2333 8.15065C24.2333 5.50065 26.3833 3.33398 29.05 3.33398C31.7 3.33398 33.8667 5.48398 33.8667 8.15065C33.85 10.7507 31.8 12.8673 29.2167 12.9507Z" fill="white"/>
<path d="M34.65 24.5007C32.7834 25.7507 30.1667 26.2173 27.75 25.9007C28.3834 24.534 28.7167 23.0173 28.7334 21.4173C28.7334 19.7507 28.3667 18.1673 27.6667 16.784C30.1334 16.4507 32.75 16.9173 34.6334 18.1673C37.2667 19.9007 37.2667 22.7507 34.65 24.5007Z" fill="white"/>
<path d="M10.7333 12.9507C10.85 12.934 10.9666 12.934 11.0833 12.9507C13.6666 12.8673 15.7166 10.7507 15.7166 8.15065C15.7166 5.48398 13.5666 3.33398 10.9 3.33398C8.24998 3.33398 6.09998 5.48398 6.09998 8.15065C6.09998 10.7507 8.14998 12.8673 10.7333 12.9507Z" fill="white"/>
<path d="M10.9167 21.4157C10.9167 23.0324 11.2667 24.5657 11.9 25.949C9.55001 26.199 7.10001 25.699 5.30001 24.5157C2.66668 22.7657 2.66668 19.9157 5.30001 18.1657C7.08335 16.9657 9.60001 16.4824 11.9667 16.749C11.2833 18.149 10.9167 19.7324 10.9167 21.4157Z" fill="white"/>
<path d="M20.2 26.45C20.0667 26.4333 19.9167 26.4333 19.7667 26.45C16.7 26.35 14.25 23.8333 14.25 20.7333C14.2667 17.5667 16.8167 15 20 15C23.1667 15 25.7333 17.5667 25.7333 20.7333C25.7167 23.8333 23.2833 26.35 20.2 26.45Z" fill="white"/>
<path d="M14.7833 29.9004C12.2666 31.5837 12.2666 34.3504 14.7833 36.0171C17.65 37.9337 22.35 37.9337 25.2166 36.0171C27.7333 34.3337 27.7333 31.5671 25.2166 29.9004C22.3666 27.9837 17.6666 27.9837 14.7833 29.9004Z" fill="white"/>
</svg>
