<svg width="40" height="40" viewBox="0 0 40 40" fill="none" xmlns="http://www.w3.org/2000/svg">
<path fill-rule="evenodd" clip-rule="evenodd" d="M38.4465 23.2399C38.2924 25.9952 35.9929 28.1383 33.2339 28.1002H20.7043C20.1304 28.0942 19.6672 27.6287 19.6642 27.0555V13.5644C19.6462 13.0908 19.9209 12.6545 20.3564 12.4659C20.3564 12.4659 21.5088 11.6668 23.9363 11.6668C25.4194 11.6653 26.8748 12.0648 28.1492 12.8244C30.1591 14.0067 31.5816 15.9777 32.0718 18.257C32.5043 18.1351 32.9518 18.0744 33.4007 18.0759C34.7626 18.0677 36.0684 18.6125 37.0203 19.5868C37.9721 20.5603 38.4869 21.8788 38.4473 23.2399H38.4465ZM18.1003 14.4175C18.4782 18.9934 18.7528 23.1666 18.1003 27.7275C18.0778 27.9333 17.9035 28.0897 17.6962 28.0897C17.4882 28.0897 17.3145 27.9333 17.2913 27.7275C16.683 23.2055 16.9479 18.9537 17.2913 14.4175C17.2741 14.2626 17.3475 14.1107 17.4799 14.0284C17.6116 13.9461 17.7792 13.9461 17.9124 14.0284C18.0441 14.1107 18.1175 14.2626 18.1003 14.4175ZM15.565 27.732C15.5336 27.9408 15.354 28.0942 15.1437 28.0942C14.9327 28.0942 14.7531 27.9408 14.7217 27.732C14.2682 23.8304 14.2682 19.8891 14.7217 15.9874C14.7449 15.7704 14.9282 15.6058 15.146 15.6058C15.3637 15.6058 15.5463 15.7704 15.5703 15.9874C16.0739 19.8861 16.0716 23.8334 15.565 27.732ZM13.0245 15.5901C13.4361 19.7828 13.6232 23.5393 13.0201 27.7223C13.0201 27.9468 12.8375 28.1293 12.613 28.1293C12.3885 28.1293 12.2059 27.9468 12.2059 27.7223C11.6222 23.5931 11.8183 19.7289 12.2059 15.5901C12.2284 15.3806 12.405 15.2234 12.6152 15.2234C12.8255 15.2234 13.0021 15.3806 13.0245 15.5901ZM10.4803 27.7372C10.4564 27.9482 10.2783 28.1084 10.065 28.1084C9.85251 28.1084 9.67366 27.9482 9.65121 27.7372C9.18278 24.0968 9.18278 20.4114 9.65121 16.7717C9.65121 16.5389 9.83979 16.3504 10.0725 16.3504C10.3052 16.3504 10.4945 16.5389 10.4945 16.7717C10.9922 20.4099 10.9869 24.0997 10.4796 27.7372H10.4803ZM7.9391 19.5134C8.58189 22.357 8.2923 24.8682 7.91516 27.7664C7.88448 27.9595 7.71761 28.1017 7.5223 28.1017C7.32774 28.1017 7.16088 27.9595 7.1302 27.7664C6.78673 24.9079 6.50237 22.3375 7.1055 19.5127C7.1055 19.2829 7.29257 19.0959 7.5223 19.0959C7.75278 19.0959 7.9391 19.2829 7.9391 19.5134ZM5.40386 19.0817C5.99277 21.9948 5.80121 24.4612 5.3889 27.384C5.34026 27.8158 4.60019 27.8203 4.56053 27.384C4.18788 24.5053 4.01128 21.9648 4.54557 19.0817C4.56951 18.8624 4.75509 18.6963 4.97509 18.6963C5.19584 18.6963 5.38067 18.8624 5.40386 19.0817ZM2.84468 20.4937C3.46203 22.4258 3.25101 23.9957 2.81999 25.9765C2.79754 26.18 2.62543 26.3342 2.42039 26.3342C2.21536 26.3342 2.04325 26.18 2.02006 25.9765C1.6474 24.0346 1.49625 22.431 1.98639 20.4937C2.00883 20.2744 2.19441 20.1083 2.41516 20.1083C2.63591 20.1083 2.82074 20.2744 2.84393 20.4937H2.84468Z" fill="white"/>
</svg>
