<svg width="30" height="30" viewBox="0 0 30 30" fill="none" xmlns="http://www.w3.org/2000/svg">
<path d="M23.8731 13.2978C19.038 10.4264 11.0624 10.1623 6.44665 11.5634C5.70546 11.7882 4.92164 11.3698 4.69702 10.6286C4.47241 9.88704 4.89047 9.10375 5.6322 8.87841C10.9307 7.26992 19.7388 7.58069 25.3051 10.8849C25.9718 11.2806 26.1905 12.1416 25.7954 12.8072C25.3999 13.4739 24.5381 13.6937 23.8731 13.2978ZM23.7147 17.5508C23.3755 18.1013 22.6558 18.2739 22.1061 17.9359C18.075 15.4582 11.9282 14.7405 7.15918 16.1879C6.54069 16.3749 5.88744 16.0262 5.69973 15.4089C5.51326 14.7904 5.86219 14.1384 6.47943 13.9504C11.9275 12.2973 18.7001 13.0979 23.33 15.9431C23.8797 16.2816 24.0527 17.0018 23.7147 17.5508ZM21.8793 21.6353C21.6097 22.0774 21.0342 22.2158 20.5938 21.9464C17.0712 19.7936 12.6377 19.3075 7.4164 20.5C6.91325 20.6154 6.4119 20.3001 6.29709 19.797C6.18191 19.294 6.49591 18.7925 7.00031 18.6777C12.714 17.3715 17.6154 17.9336 21.5691 20.3496C22.0099 20.6188 22.1487 21.1947 21.8793 21.6353ZM15.0001 0C6.71587 0 0 6.71573 0 14.9998C0 23.2848 6.71587 30 15.0001 30C23.2845 30 30 23.2848 30 14.9998C30 6.71573 23.2845 0 15.0001 0Z" fill="white"/>
</svg>
