<svg width="40" height="40" viewBox="0 0 40 40" fill="none" xmlns="http://www.w3.org/2000/svg">
<path d="M26.9834 3.33398H13.0167C6.95004 3.33398 3.33337 6.95065 3.33337 13.0173V26.9673C3.33337 33.0507 6.95004 36.6673 13.0167 36.6673H26.9667C33.0334 36.6673 36.65 33.0507 36.65 26.984V13.0173C36.6667 6.95065 33.05 3.33398 26.9834 3.33398ZM12.7167 30.2507C12.7167 30.934 12.15 31.5007 11.4667 31.5007C10.7834 31.5007 10.2167 30.934 10.2167 30.2507V26.8007C10.2167 26.1173 10.7834 25.5507 11.4667 25.5507C12.15 25.5507 12.7167 26.1173 12.7167 26.8007V30.2507ZM21.25 30.2507C21.25 30.934 20.6834 31.5007 20 31.5007C19.3167 31.5007 18.75 30.934 18.75 30.2507V23.334C18.75 22.6507 19.3167 22.084 20 22.084C20.6834 22.084 21.25 22.6507 21.25 23.334V30.2507ZM29.7834 30.2507C29.7834 30.934 29.2167 31.5007 28.5334 31.5007C27.85 31.5007 27.2834 30.934 27.2834 30.2507V19.884C27.2834 19.2007 27.85 18.634 28.5334 18.634C29.2167 18.634 29.7834 19.2007 29.7834 19.884V30.2507ZM29.7834 14.6173C29.7834 15.3007 29.2167 15.8673 28.5334 15.8673C27.85 15.8673 27.2834 15.3007 27.2834 14.6173V13.0007C23.0334 17.3673 17.7167 20.4507 11.7667 21.934C11.6667 21.9673 11.5667 21.9673 11.4667 21.9673C10.9 21.9673 10.4 21.584 10.25 21.0173C10.0834 20.3507 10.4834 19.6673 11.1667 19.5007C16.7834 18.1007 21.7834 15.1507 25.75 10.984H23.6667C22.9834 10.984 22.4167 10.4173 22.4167 9.73398C22.4167 9.05065 22.9834 8.48398 23.6667 8.48398H28.55C28.6167 8.48398 28.6667 8.51732 28.7334 8.51732C28.8167 8.53398 28.9 8.53398 28.9834 8.56732C29.0667 8.60065 29.1334 8.65065 29.2167 8.70065C29.2667 8.73398 29.3167 8.75065 29.3667 8.78398C29.3834 8.80065 29.3834 8.81732 29.4 8.81732C29.4667 8.88398 29.5167 8.95065 29.5667 9.01732C29.6167 9.08398 29.6667 9.13398 29.6834 9.20065C29.7167 9.26732 29.7167 9.33398 29.7334 9.41732C29.75 9.50065 29.7834 9.58398 29.7834 9.68398C29.7834 9.70065 29.8 9.71732 29.8 9.73398V14.6173H29.7834Z" fill="white"/>
</svg>
