<svg width="40" height="40" viewBox="0 0 40 40" fill="none" xmlns="http://www.w3.org/2000/svg">
<path d="M28.05 26.0669C29.1667 25.3336 30.6334 26.1336 30.6334 27.4669V29.6169C30.6334 31.7336 28.9834 34.0003 27 34.6669L21.6834 36.4336C20.75 36.7503 19.2334 36.7503 18.3167 36.4336L13 34.6669C11 34.0003 9.3667 31.7336 9.3667 29.6169V27.4503C9.3667 26.1336 10.8334 25.3336 11.9334 26.0503L15.3667 28.2836C16.6834 29.1669 18.35 29.6003 20.0167 29.6003C21.6834 29.6003 23.35 29.1669 24.6667 28.2836L28.05 26.0669Z" fill="white"/>
<path d="M33.3 10.7676L23.3167 4.21758C21.5167 3.03424 18.55 3.03424 16.75 4.21758L6.7167 10.7676C3.50003 12.8509 3.50003 17.5676 6.7167 19.6676L9.38337 21.4009L16.75 26.2009C18.55 27.3842 21.5167 27.3842 23.3167 26.2009L30.6334 21.4009L32.9167 19.9009V25.0009C32.9167 25.6842 33.4834 26.2509 34.1667 26.2509C34.85 26.2509 35.4167 25.6842 35.4167 25.0009V16.8009C36.0834 14.6509 35.4 12.1509 33.3 10.7676Z" fill="white"/>
</svg>
