<svg width="40" height="40" viewBox="0 0 40 40" fill="none" xmlns="http://www.w3.org/2000/svg">
<rect width="40" height="40" rx="4" fill="white"/>
<rect width="40" height="40" rx="4" stroke="#7E1701"/>
<path d="M15.6537 15.7252C15.7265 15.8062 15.717 15.9281 15.6433 16.0082L15.5934 16.0624C14.3562 17.2997 13.1138 18.5319 11.8815 19.7742C11.7306 19.9251 11.6501 19.9201 11.4992 19.7742C10.262 18.5269 9.01632 17.2829 7.76226 16.0423C7.62143 15.9015 7.61137 15.8309 7.76226 15.6901C9.02302 14.4428 10.2804 13.1887 11.5345 11.9279C11.6552 11.8022 11.7307 11.7921 11.8565 11.9279C13.1206 13.1954 14.3863 14.4611 15.6537 15.7252Z" fill="#7E1701"/>
<path d="M20.1254 28.0352C20.0396 28.1235 19.8909 28.1219 19.8085 28.0303L16.0363 24.2731C15.8955 24.1373 15.8955 24.0669 16.0363 23.9261C17.3071 22.6686 18.5729 21.4045 19.8337 20.1337C19.9494 20.018 20.0047 20.0331 20.1053 20.1337C21.3661 21.4012 22.6319 22.6653 23.9027 23.9261C24.0184 24.0367 24.0687 24.1122 23.9279 24.248L20.1254 28.0352Z" fill="#7E1701"/>
<path d="M20.1005 19.812C20.0199 19.8783 19.9003 19.8773 19.8237 19.8064C19.8044 19.7886 19.786 19.7706 19.7686 19.7516C18.5313 18.5194 17.299 17.282 16.0567 16.0548C15.8907 15.8888 15.8957 15.8034 16.0567 15.6424C17.3007 14.4152 18.5364 13.1811 19.7636 11.9405C19.8994 11.7996 19.9849 11.7694 20.1408 11.9405C21.3815 13.1945 22.6271 14.4387 23.8778 15.6727C23.9985 15.7984 24.0589 15.8738 23.903 16.0297C22.6305 17.2871 21.3881 18.5446 20.1005 19.812Z" fill="#7E1701"/>
<path d="M32.153 15.6857C32.2642 15.7411 32.2761 15.8883 32.1916 15.9794L32.1564 16.0174C30.909 17.2648 29.6416 18.5071 28.4194 19.7594C28.2585 19.9204 28.173 19.8852 28.0372 19.7594C26.7999 18.5221 25.5675 17.2849 24.3202 16.0577C24.1441 15.8766 24.1844 15.791 24.3202 15.635C25.5541 14.4179 26.7814 13.1923 28.0019 11.9583C28.1578 11.8024 28.2434 11.7722 28.4144 11.9583C29.6328 13.1917 30.8659 14.4153 32.0944 15.6436C32.1121 15.6613 32.1305 15.6746 32.153 15.6857Z" fill="#7E1701"/>
</svg>
