<svg width="40" height="40" viewBox="0 0 40 40" fill="none" xmlns="http://www.w3.org/2000/svg">
<g clip-path="url(#clip0_3338_7180)">
<path fill-rule="evenodd" clip-rule="evenodd" d="M23.3334 5C23.7754 5 24.1993 5.17559 24.5119 5.48816C24.8244 5.80072 25 6.22464 25 6.66667C25.001 8.20321 25.5321 9.69235 26.5038 10.8826C27.4755 12.0729 28.8281 12.8915 30.3334 13.2C30.7666 13.2884 31.1469 13.5453 31.3907 13.9141C31.6345 14.2829 31.7218 14.7335 31.6334 15.1667C31.545 15.5999 31.2881 15.9802 30.9193 16.224C30.5505 16.4678 30.0999 16.5551 29.6667 16.4667C27.93 16.1117 26.3193 15.3006 25 14.1167V28.3333C25 29.9815 24.5113 31.5927 23.5956 32.9631C22.6799 34.3335 21.3785 35.4016 19.8557 36.0323C18.333 36.6631 16.6575 36.8281 15.041 36.5065C13.4245 36.185 11.9396 35.3913 10.7742 34.2259C9.60872 33.0605 8.81504 31.5756 8.4935 29.9591C8.17196 28.3426 8.33698 26.667 8.96772 25.1443C9.59845 23.6216 10.6665 22.3201 12.037 21.4044C13.4074 20.4887 15.0185 20 16.6667 20C17.1087 20 17.5327 20.1756 17.8452 20.4882C18.1578 20.8007 18.3334 21.2246 18.3334 21.6667C18.3334 22.1087 18.1578 22.5326 17.8452 22.8452C17.5327 23.1577 17.1087 23.3333 16.6667 23.3333C15.6778 23.3333 14.7111 23.6266 13.8889 24.176C13.0666 24.7254 12.4258 25.5063 12.0473 26.4199C11.6689 27.3335 11.5699 28.3389 11.7628 29.3088C11.9557 30.2787 12.4319 31.1696 13.1312 31.8689C13.8304 32.5681 14.7214 33.0443 15.6913 33.2373C16.6612 33.4302 17.6665 33.3312 18.5801 32.9527C19.4938 32.5743 20.2747 31.9334 20.8241 31.1112C21.3735 30.2889 21.6667 29.3222 21.6667 28.3333V6.66667C21.6667 6.22464 21.8423 5.80072 22.1549 5.48816C22.4674 5.17559 22.8913 5 23.3334 5Z" fill="#FBF7F3"/>
</g>
<defs>
<clipPath id="clip0_3338_7180">
<rect width="40" height="40" fill="white"/>
</clipPath>
</defs>
</svg>
