<svg width="40" height="40" viewBox="0 0 40 40" fill="none" xmlns="http://www.w3.org/2000/svg">
<g clip-path="url(#clip0_3338_7176)">
<path d="M39.1671 10.845C38.9406 10.0371 38.4994 9.30562 37.8904 8.72838C37.2642 8.13338 36.4968 7.70777 35.6604 7.49171C32.5304 6.66671 19.9904 6.66671 19.9904 6.66671C14.7626 6.60723 9.53613 6.86884 4.34042 7.45005C3.50407 7.68207 2.73802 8.11719 2.11042 8.71671C1.49375 9.31005 1.04709 10.0417 0.813752 10.8434C0.25324 13.863 -0.019095 16.929 0.000418287 20C-0.0195817 23.0684 0.252085 26.1334 0.813752 29.1567C1.04209 29.955 1.48708 30.6834 2.10542 31.2717C2.72375 31.86 3.49375 32.285 4.34042 32.51C7.51209 33.3334 19.9904 33.3334 19.9904 33.3334C25.2249 33.3929 30.458 33.1313 35.6604 32.55C36.4968 32.334 37.2642 31.9084 37.8904 31.3134C38.4992 30.7362 38.9399 30.0047 39.1654 29.1967C39.7406 26.1783 40.0202 23.111 40.0004 20.0384C40.0437 16.9527 39.7644 13.871 39.1671 10.8434V10.845ZM16.0038 25.7067V14.295L26.4371 20.0017L16.0038 25.7067Z" fill="#FBF7F3"/>
</g>
<defs>
<clipPath id="clip0_3338_7176">
<rect width="40" height="40" fill="white"/>
</clipPath>
</defs>
</svg>
