<svg width="40" height="40" viewBox="0 0 40 40" fill="none" xmlns="http://www.w3.org/2000/svg">
<path d="M20 31.6666C26.4434 31.6666 31.6667 26.4432 31.6667 19.9999C31.6667 13.5566 26.4434 8.33325 20 8.33325C13.5567 8.33325 8.33337 13.5566 8.33337 19.9999C8.33337 26.4432 13.5567 31.6666 20 31.6666Z" stroke="#FBF7F3" stroke-linecap="round" stroke-linejoin="round"/>
<path d="M25.8334 20.0001L15.8334 25.8334V14.1667L25.8334 20.0001Z" stroke="#FBF7F3" stroke-linecap="round" stroke-linejoin="round"/>
<path d="M20 37.9166C29.8951 37.9166 37.9167 29.895 37.9167 19.9999C37.9167 10.1048 29.8951 2.08325 20 2.08325C10.1049 2.08325 2.08337 10.1048 2.08337 19.9999C2.08337 29.895 10.1049 37.9166 20 37.9166Z" stroke="#FBF7F3" stroke-linecap="round" stroke-linejoin="round"/>
</svg>
