<svg width="330" height="120" viewBox="0 0 330 120" fill="none" xmlns="http://www.w3.org/2000/svg">
<path d="M42.14 33.3391C42.1462 33.2162 42.1523 33.0994 42.1523 32.9765C42.1523 32.8536 42.1462 32.7306 42.14 32.6138C42.1338 32.7368 42.1338 32.8536 42.1338 32.9765C42.1338 33.0994 42.1338 33.2162 42.14 33.3391Z" fill="white"/>
<path d="M47.3356 32.6077C47.3294 32.7306 47.3232 32.8474 47.3232 32.9703C47.3232 33.0933 47.3294 33.2162 47.3356 33.333C47.3418 33.21 47.3418 33.0933 47.3418 32.9703C47.3418 32.8474 47.3418 32.7306 47.3356 32.6077Z" fill="white"/>
<path d="M80.6429 33.3391C80.6491 33.2162 80.6553 33.0994 80.6553 32.9765C80.6553 32.8536 80.6491 32.7306 80.6429 32.6138C80.6367 32.7368 80.6367 32.8536 80.6367 32.9765C80.6367 33.0994 80.6367 33.2162 80.6429 33.3391Z" fill="white"/>
<path d="M85.8385 32.6077C85.8324 32.7306 85.8262 32.8474 85.8262 32.9703C85.8262 33.0933 85.8324 33.2162 85.8385 33.333C85.8447 33.21 85.8447 33.0933 85.8447 32.9703C85.8447 32.8474 85.8447 32.7306 85.8385 32.6077Z" fill="white"/>
<path d="M34.4707 39.9344C34.681 39.9529 34.8975 39.9652 35.114 39.9652C35.3305 39.9652 35.5469 39.9529 35.7572 39.9344C35.5469 39.9221 35.3305 39.916 35.114 39.916C34.8975 39.916 34.681 39.9221 34.4707 39.9344Z" fill="white"/>
<path d="M35.7572 45.1099C35.5469 45.0914 35.3305 45.0791 35.114 45.0791C34.8975 45.0791 34.681 45.0914 34.4707 45.1099C34.681 45.1222 34.8975 45.1283 35.114 45.1283C35.3305 45.1283 35.5469 45.1222 35.7572 45.1099Z" fill="white"/>
<path d="M55.0053 39.9344C54.795 39.9221 54.5785 39.916 54.362 39.916C54.1455 39.916 53.929 39.9221 53.7188 39.9344C53.929 39.9529 54.1455 39.9652 54.362 39.9652C54.5785 39.9652 54.7888 39.9529 55.0053 39.9344Z" fill="white"/>
<path d="M42.14 51.7052C42.1338 51.8281 42.1338 51.9449 42.1338 52.0678C42.1338 52.1907 42.14 52.3137 42.14 52.4305C42.1462 52.3075 42.1523 52.1907 42.1523 52.0678C42.1523 51.9449 42.1462 51.8281 42.14 51.7052Z" fill="white"/>
<path d="M55.0053 45.1099C54.795 45.0914 54.5785 45.0791 54.362 45.0791C54.1455 45.0791 53.929 45.0914 53.7188 45.1099C53.929 45.1222 54.1455 45.1283 54.362 45.1283C54.5785 45.1283 54.7888 45.1222 55.0053 45.1099Z" fill="white"/>
<path d="M47.3356 51.7052C47.3294 51.8281 47.3232 51.9449 47.3232 52.0678C47.3232 52.1907 47.3294 52.3137 47.3356 52.4305C47.3418 52.3075 47.3418 52.1907 47.3418 52.0678C47.3418 51.9449 47.3418 51.8281 47.3356 51.7052Z" fill="white"/>
<path d="M74.2602 39.9344C74.0499 39.9221 73.8334 39.916 73.6169 39.916C73.4004 39.916 73.1839 39.9221 72.9736 39.9344C73.1839 39.9529 73.4004 39.9652 73.6169 39.9652C73.8334 39.9652 74.0499 39.9529 74.2602 39.9344Z" fill="white"/>
<path d="M74.2602 45.1099C74.0499 45.0914 73.8334 45.0791 73.6169 45.0791C73.4004 45.0791 73.1839 45.0914 72.9736 45.1099C73.1839 45.1222 73.4004 45.1283 73.6169 45.1283C73.8334 45.1283 74.0499 45.1222 74.2602 45.1099Z" fill="white"/>
<path d="M92.2217 39.9344C92.432 39.9529 92.6485 39.9652 92.8649 39.9652C93.0814 39.9652 93.2979 39.9529 93.5082 39.9344C93.2979 39.9221 93.0814 39.916 92.8649 39.916C92.6485 39.916 92.432 39.9221 92.2217 39.9344Z" fill="white"/>
<path d="M80.6429 52.4366C80.6491 52.3137 80.6553 52.1969 80.6553 52.074C80.6553 51.951 80.6491 51.8281 80.6429 51.7113C80.6367 51.8343 80.6367 51.951 80.6367 52.074C80.6367 52.1969 80.6367 52.3137 80.6429 52.4366Z" fill="white"/>
<path d="M92.2217 45.1099C92.432 45.1222 92.6485 45.1283 92.8649 45.1283C93.0814 45.1283 93.2979 45.1222 93.5082 45.1099C93.2979 45.0914 93.0814 45.0791 92.8649 45.0791C92.6485 45.0791 92.432 45.0914 92.2217 45.1099Z" fill="white"/>
<path d="M85.8385 52.4366C85.8447 52.3137 85.8447 52.1969 85.8447 52.074C85.8447 51.951 85.8385 51.8281 85.8385 51.7113C85.8324 51.8343 85.8262 51.951 85.8262 52.074C85.8262 52.1969 85.8324 52.3137 85.8385 52.4366Z" fill="white"/>
<path d="M34.4707 59.0319C34.681 59.0503 34.8975 59.0626 35.114 59.0626C35.3305 59.0626 35.5469 59.0503 35.7572 59.0319C35.5469 59.0196 35.3305 59.0135 35.114 59.0135C34.8975 59.0135 34.681 59.0196 34.4707 59.0319Z" fill="white"/>
<path d="M35.7572 64.2073C35.5469 64.1889 35.3305 64.1766 35.114 64.1766C34.8975 64.1766 34.681 64.1889 34.4707 64.2073C34.681 64.2196 34.8975 64.2258 35.114 64.2258C35.3305 64.2258 35.5469 64.2196 35.7572 64.2073Z" fill="white"/>
<path d="M53.7129 59.0319C53.9232 59.0503 54.1397 59.0626 54.3562 59.0626C54.5726 59.0626 54.7891 59.0503 54.9994 59.0319C54.7891 59.0196 54.5726 59.0135 54.3562 59.0135C54.1397 59.0135 53.9294 59.0196 53.7129 59.0319Z" fill="white"/>
<path d="M42.14 70.8027C42.1338 70.9256 42.1338 71.0424 42.1338 71.1653C42.1338 71.2882 42.14 71.4112 42.14 71.528C42.1462 71.405 42.1523 71.2882 42.1523 71.1653C42.1462 71.0424 42.1462 70.9256 42.14 70.8027Z" fill="white"/>
<path d="M55.0053 64.2073C54.795 64.1889 54.5785 64.1766 54.362 64.1766C54.1455 64.1766 53.929 64.1889 53.7188 64.2073C53.929 64.2196 54.1455 64.2258 54.362 64.2258C54.5785 64.2258 54.7888 64.2196 55.0053 64.2073Z" fill="white"/>
<path d="M47.3356 70.8027C47.3294 70.9256 47.3232 71.0424 47.3232 71.1653C47.3232 71.2882 47.3294 71.4112 47.3356 71.528C47.3418 71.405 47.3418 71.2882 47.3418 71.1653C47.3418 71.0424 47.3418 70.9256 47.3356 70.8027Z" fill="white"/>
<path d="M72.9736 59.0319C73.1839 59.0503 73.4004 59.0626 73.6169 59.0626C73.8334 59.0626 74.0499 59.0503 74.2602 59.0319C74.0499 59.0196 73.8334 59.0135 73.6169 59.0135C73.4004 59.0135 73.1901 59.0196 72.9736 59.0319Z" fill="white"/>
<path d="M74.2602 64.2073C74.0499 64.1889 73.8334 64.1766 73.6169 64.1766C73.4004 64.1766 73.1839 64.1889 72.9736 64.2073C73.1839 64.2196 73.4004 64.2258 73.6169 64.2258C73.8334 64.2258 74.0499 64.2196 74.2602 64.2073Z" fill="white"/>
<path d="M92.2217 59.0319C92.432 59.0503 92.6485 59.0626 92.8649 59.0626C93.0814 59.0626 93.2979 59.0503 93.5082 59.0319C93.2979 59.0196 93.0814 59.0135 92.8649 59.0135C92.6485 59.0135 92.432 59.0196 92.2217 59.0319Z" fill="white"/>
<path d="M80.6435 71.5341C80.6497 71.4111 80.6559 71.2944 80.6559 71.1714C80.6559 71.0485 80.6497 70.9256 80.6435 70.8088C80.6373 70.9317 80.6373 71.0485 80.6373 71.1714C80.6311 71.2882 80.6373 71.4111 80.6435 71.5341Z" fill="white"/>
<path d="M93.5082 64.2073C93.2979 64.1889 93.0814 64.1766 92.8649 64.1766C92.6485 64.1766 92.432 64.1889 92.2217 64.2073C92.432 64.2196 92.6485 64.2258 92.8649 64.2258C93.0814 64.2258 93.2917 64.2196 93.5082 64.2073Z" fill="white"/>
<path d="M85.8385 71.5341C85.8447 71.4111 85.8447 71.2944 85.8447 71.1714C85.8447 71.0485 85.8385 70.9256 85.8385 70.8088C85.8324 70.9317 85.8262 71.0485 85.8262 71.1714C85.8324 71.2882 85.8324 71.4111 85.8385 71.5341Z" fill="white"/>
<path d="M34.4707 78.1233C34.681 78.1417 34.8975 78.154 35.114 78.154C35.3305 78.154 35.5469 78.1417 35.7572 78.1233C35.5469 78.111 35.3305 78.1048 35.114 78.1048C34.8975 78.111 34.681 78.1171 34.4707 78.1233Z" fill="white"/>
<path d="M35.7572 83.3048C35.5469 83.2864 35.3305 83.2741 35.114 83.2741C34.8975 83.2741 34.681 83.2864 34.4707 83.3048C34.681 83.3171 34.8975 83.3233 35.114 83.3233C35.3305 83.3233 35.5469 83.3171 35.7572 83.3048Z" fill="white"/>
<path d="M53.7129 78.1233C53.9232 78.1417 54.1397 78.154 54.3562 78.154C54.5726 78.154 54.7891 78.1417 54.9994 78.1233C54.7891 78.111 54.5726 78.1048 54.3562 78.1048C54.1459 78.111 53.9294 78.1171 53.7129 78.1233Z" fill="white"/>
<path d="M42.14 90.6254C42.1462 90.5025 42.1523 90.3857 42.1523 90.2628C42.1523 90.1398 42.1462 90.0169 42.14 89.9001C42.1338 90.023 42.1338 90.1398 42.1338 90.2628C42.1338 90.3857 42.1338 90.5086 42.14 90.6254Z" fill="white"/>
<path d="M72.9736 78.1233C73.1839 78.1417 73.4004 78.154 73.6169 78.154C73.8334 78.154 74.0499 78.1417 74.2602 78.1233C74.0499 78.111 73.8334 78.1048 73.6169 78.1048C73.4004 78.111 73.1901 78.1171 72.9736 78.1233Z" fill="white"/>
<path d="M72.9736 83.3048C73.1839 83.3171 73.4004 83.3233 73.6169 83.3233C73.8334 83.3233 74.0499 83.3171 74.2602 83.3048C74.0499 83.2864 73.8334 83.2741 73.6169 83.2741C73.4004 83.2741 73.1839 83.2864 72.9736 83.3048Z" fill="white"/>
<path d="M92.2217 78.1233C92.432 78.1417 92.6485 78.154 92.8649 78.154C93.0814 78.154 93.2979 78.1417 93.5082 78.1233C93.2979 78.111 93.0814 78.1048 92.8649 78.1048C92.6485 78.1048 92.432 78.1171 92.2217 78.1233Z" fill="white"/>
<path d="M80.6429 90.6254C80.6491 90.5025 80.6553 90.3857 80.6553 90.2628C80.6553 90.1398 80.6491 90.0169 80.6429 89.9001C80.6367 90.023 80.6367 90.1398 80.6367 90.2628C80.6367 90.3857 80.6367 90.5086 80.6429 90.6254Z" fill="white"/>
<path d="M47.3359 33.3391C47.3421 33.2162 47.3421 33.0994 47.3421 32.9765C47.3421 32.8536 47.3359 32.7306 47.3359 32.6138C47.5277 28.9259 50.5956 25.9878 54.3624 25.9878C58.2096 25.9878 61.3332 29.055 61.395 32.8597C61.395 32.8966 61.395 32.9335 61.395 32.9765C61.395 33.0195 61.395 33.0564 61.395 33.0933C61.3332 36.6829 58.556 39.6148 55.0118 39.9344C54.8015 39.9221 54.5851 39.916 54.3686 39.916C54.1521 39.916 53.9356 39.9221 53.7253 39.9344C50.2554 39.621 47.5153 36.8181 47.3359 33.3391ZM72.9738 39.9344C73.1841 39.9221 73.4006 39.916 73.6171 39.916C73.8336 39.916 74.0501 39.9221 74.2603 39.9344C77.7241 39.621 80.458 36.8181 80.6373 33.3391C80.6312 33.2162 80.6312 33.0994 80.6312 32.9765C80.6312 32.8536 80.6373 32.7306 80.6373 32.6138C80.4456 28.9259 77.3777 25.9878 73.6109 25.9878C69.7637 25.9878 66.6401 29.055 66.5783 32.8597C66.5783 32.8966 66.5783 32.9396 66.5783 32.9765C66.5783 33.0134 66.5783 33.0564 66.5783 33.0933C66.6463 36.6829 69.4297 39.6148 72.9738 39.9344Z" fill="white"/>
<path d="M55.0053 64.2073C54.795 64.2196 54.5785 64.2258 54.3621 64.2258C54.1456 64.2258 53.9291 64.2196 53.7188 64.2073C50.255 64.5208 47.5212 67.3237 47.3418 70.8026C47.348 70.9256 47.348 71.0424 47.348 71.1653C47.348 71.2882 47.3418 71.4112 47.3418 71.5279C47.5212 75.0069 50.2612 77.8098 53.7188 78.1232C53.9291 78.1109 54.1456 78.1048 54.3621 78.1048C54.5785 78.1048 54.795 78.1109 55.0053 78.1232C58.5495 77.8036 61.3328 74.8717 61.3885 71.2821C61.3885 71.2452 61.3885 71.2083 61.3885 71.1653C61.3885 71.1284 61.3885 71.0854 61.3885 71.0485C61.3328 67.4589 58.5495 64.527 55.0053 64.2073Z" fill="white"/>
<path d="M99.898 71.1653C99.898 74.8102 97.0899 77.8036 93.5086 78.1232C93.2983 78.1109 93.0818 78.1048 92.8654 78.1048C92.6489 78.1048 92.4324 78.1109 92.2221 78.1232C89.6181 78.2584 87.2244 79.205 85.3008 80.7109C84.5338 81.3133 83.8411 82.0017 83.2411 82.7639C81.6762 84.7431 80.7237 87.2079 80.6433 89.9001C80.6371 90.023 80.6371 90.1398 80.6371 90.2627C80.6371 90.3857 80.6433 90.5086 80.6433 90.6254C80.4516 94.3133 77.3837 97.2514 73.6169 97.2514C69.7696 97.2514 66.6461 94.1843 66.5842 90.3795C66.5842 90.3426 66.5842 90.2996 66.5842 90.2627C66.5842 90.2259 66.5842 90.1828 66.5842 90.146C66.6461 86.5563 69.4294 83.6244 72.9674 83.3048C73.1777 83.3171 73.3942 83.3232 73.6107 83.3232C73.8272 83.3232 74.0436 83.3171 74.2539 83.3048C76.8579 83.1696 79.2516 82.223 81.1752 80.7171C81.9422 80.1147 82.635 79.4263 83.2349 78.6641C84.7936 76.6849 85.7523 74.2201 85.8327 71.5279C85.8389 71.405 85.8389 71.2882 85.8389 71.1653C85.8389 71.0423 85.8327 70.9194 85.8327 70.8026C85.7523 68.1166 84.7936 65.6456 83.2349 63.6664C82.635 62.9043 81.9422 62.2158 81.1752 61.6135C79.2516 60.1076 76.8641 59.161 74.2539 59.0258C74.0436 59.0135 73.8272 59.0073 73.6107 59.0073C73.3942 59.0073 73.1777 59.0135 72.9674 59.0258C69.4233 58.7061 66.6399 55.7742 66.5842 52.1846C66.5842 52.1477 66.5842 52.1108 66.5842 52.0678C66.5842 52.0309 66.5842 51.9879 66.5842 51.951C66.6461 48.3614 69.4294 45.4295 72.9674 45.1099C73.1777 45.1222 73.3942 45.1283 73.6107 45.1283C73.8272 45.1283 74.0436 45.1222 74.2539 45.1099C76.8579 44.9746 79.2516 44.0281 81.1752 42.5221C81.9422 41.9198 82.635 41.2314 83.2349 40.4692C84.7936 38.49 85.7523 36.0252 85.8327 33.333C85.8389 33.2101 85.8389 33.0933 85.8389 32.9703C85.8389 32.8474 85.8327 32.7245 85.8327 32.6077C86.0245 28.9197 89.0924 25.9817 92.8592 25.9817C96.7435 25.9817 99.8918 29.1103 99.8918 32.9703C99.8918 36.6153 97.0837 39.6087 93.5024 39.9283C93.286 39.916 93.0757 39.9098 92.8592 39.9098C92.6427 39.9098 92.4262 39.916 92.2159 39.9283C89.6119 40.0635 87.2182 41.0101 85.2946 42.516C84.5276 43.1184 83.8349 43.8068 83.2349 44.569C81.6701 46.5482 80.7175 49.013 80.6371 51.7052C80.6309 51.8281 80.6309 51.9449 80.6309 52.0678C80.6309 52.1907 80.6371 52.3137 80.6371 52.4305C80.7175 55.1165 81.6762 57.5875 83.2349 59.5667C83.8349 60.3288 84.5276 61.0172 85.2946 61.6196C87.2182 63.1255 89.6057 64.0721 92.2159 64.2073C92.4262 64.2196 92.6427 64.2258 92.8592 64.2258C93.0757 64.2258 93.2921 64.2196 93.5024 64.2073C97.0899 64.5331 99.898 67.5203 99.898 71.1653ZM35.7569 83.3048C35.5467 83.3171 35.3302 83.3232 35.1137 83.3232C34.8972 83.3232 34.6807 83.3171 34.4704 83.3048C30.8892 83.6306 28.0811 86.6178 28.0811 90.2627C28.0811 94.1228 31.2293 97.2514 35.1137 97.2514C38.8743 97.2514 41.9484 94.3195 42.1401 90.6254C42.1339 90.5025 42.1339 90.3857 42.1339 90.2627C42.1339 90.1398 42.1401 90.0169 42.1401 89.9001C41.9546 86.4211 39.2207 83.6183 35.7569 83.3048Z" fill="white"/>
<path d="M35.7569 59.0319C35.5467 59.0196 35.3302 59.0135 35.1137 59.0135C34.8972 59.0135 34.6807 59.0196 34.4704 59.0319C30.8892 58.7061 28.0811 55.7189 28.0811 52.074C28.0811 48.429 30.8892 45.4356 34.4704 45.116C34.6807 45.1283 34.8972 45.1345 35.1137 45.1345C35.3302 45.1345 35.5467 45.1283 35.7569 45.116C39.2207 45.4295 41.9546 48.2323 42.1339 51.7113C42.1278 51.8342 42.1278 51.951 42.1278 52.074C42.1278 52.1969 42.1339 52.3198 42.1339 52.4366C41.9546 55.9094 39.2207 58.7184 35.7569 59.0319ZM92.2221 45.1099C88.7584 45.4233 86.0245 48.2262 85.8451 51.7052C85.8513 51.8281 85.8513 51.9449 85.8513 52.0678C85.8513 52.1908 85.8451 52.3137 85.8451 52.4305C86.0245 55.9094 88.7645 58.7123 92.2221 59.0258C92.4324 59.0135 92.6489 59.0073 92.8654 59.0073C93.0818 59.0073 93.2983 59.0135 93.5086 59.0258C97.0899 58.7 99.898 55.7127 99.898 52.0678C99.898 48.4229 97.0899 45.4295 93.5086 45.1099C93.2983 45.1222 93.0818 45.1283 92.8654 45.1283C92.6489 45.1283 92.4324 45.1222 92.2221 45.1099ZM85.8389 89.9001C85.8451 90.023 85.8451 90.1398 85.8451 90.2628C85.8451 90.3857 85.8389 90.5086 85.8389 90.6254C86.0307 94.3134 89.0985 97.2515 92.8654 97.2515C96.7497 97.2515 99.898 94.1228 99.898 90.2628C99.898 86.6178 97.0899 83.6244 93.5086 83.3048C93.2983 83.3171 93.0818 83.3233 92.8654 83.3233C92.6489 83.3233 92.4324 83.3171 92.2221 83.3048C88.7584 83.6183 86.0183 86.4211 85.8389 89.9001Z" fill="white"/>
<path d="M93.5082 83.3048C93.2979 83.2864 93.0814 83.2741 92.8649 83.2741C92.6485 83.2741 92.432 83.2864 92.2217 83.3048C92.432 83.3171 92.6485 83.3233 92.8649 83.3233C93.0814 83.3233 93.2917 83.3171 93.5082 83.3048Z" fill="white"/>
<path d="M85.8385 89.9001C85.8324 90.023 85.8262 90.1398 85.8262 90.2628C85.8262 90.3857 85.8324 90.5086 85.8385 90.6254C85.8447 90.5025 85.8447 90.3857 85.8447 90.2628C85.8447 90.1398 85.8447 90.023 85.8385 89.9001Z" fill="white"/>
<path d="M134.925 69.2045H128.115L127.075 73.1875H122.121L128.337 52.1846H134.9L141.116 73.1875H135.976L134.925 69.2045ZM133.817 65.0679L131.64 56.8253H131.356L129.178 65.0679H133.817Z" fill="white"/>
<path d="M158.552 66.5369H155.206V73.1814H150.536V52.1846H159.907C164.199 52.1846 167.038 54.9444 167.038 59.2716C167.038 62.4064 165.585 64.7913 163.191 65.8854L167.453 73.1875H162.028L158.552 66.5369ZM155.206 62.2773H159.431C161.261 62.2773 162.362 61.1771 162.362 59.3638C162.362 57.5752 161.261 56.4503 159.431 56.4503H155.206V62.2773V62.2773Z" fill="white"/>
<path d="M191.359 56.4442H185.805V73.1814H181.135V56.4442H175.55V52.1846H191.353V56.4442H191.359Z" fill="white"/>
<path d="M200.414 67.4773V67.0717H203.253V67.4773C203.253 69.7639 205.208 71.2698 208.047 71.2698C210.725 71.2698 212.747 69.9237 212.747 67.7601C212.747 62.4002 200.73 65.0925 200.73 57.5752C200.73 54.0347 203.661 51.8097 207.923 51.8097C212.277 51.8097 215.085 54.0962 215.085 57.5137V57.8886H212.308V57.5444C212.308 55.473 210.477 54.0962 207.861 54.0962C205.399 54.0962 203.538 55.3194 203.538 57.3539C203.538 62.6523 215.586 59.8002 215.586 67.5081C215.586 71.1469 212.556 73.5563 208.016 73.5563C203.445 73.5625 200.414 71.1469 200.414 67.4773Z" fill="white"/>
<path d="M241.329 59.1118C241.329 63.2792 238.614 66.0083 234.482 66.0083H229.181V73.1875H226.534V52.1846H234.482C238.62 52.1846 241.329 54.9075 241.329 59.1118ZM238.682 59.1118C238.682 56.3827 236.95 54.6309 234.297 54.6309H229.188V63.562H234.297C236.944 63.562 238.682 61.804 238.682 59.1118Z" fill="white"/>
<path d="M264.265 70.7412V73.1875H251.993V52.1846H254.64V70.7412H264.265Z" fill="white"/>
<path d="M275.089 52.1846H277.736V73.1875H275.089V52.1846Z" fill="white"/>
<path d="M303.256 54.6309H297.102V73.1875H294.455V54.6309H288.27V52.1846H303.25V54.6309H303.256Z" fill="white"/>
<path d="M80.644 70.8026C80.4646 67.3237 77.7245 64.5208 74.267 64.2073C74.0567 64.2196 73.8402 64.2258 73.6237 64.2258C73.4072 64.2258 73.1908 64.2196 72.9805 64.2073C70.3765 64.0721 67.9828 63.1255 66.0592 61.6196C65.2922 61.0173 64.5994 60.3288 63.9933 59.5605C62.3851 57.526 61.4202 54.969 61.3955 52.1846C61.3955 52.1477 61.3955 52.1108 61.3955 52.0678C61.3955 52.0309 61.3955 51.9941 61.3955 51.951C61.3398 48.3614 58.5564 45.4295 55.0123 45.1099C54.802 45.1222 54.5855 45.1283 54.369 45.1283C54.1525 45.1283 53.9361 45.1222 53.7258 45.1099C52.8598 45.1898 52.0434 45.4233 51.295 45.7798C52.0434 45.4172 52.866 45.1775 53.7381 45.1037C51.1341 44.9685 48.7404 44.0219 46.8168 42.516C46.6746 42.6266 46.6622 42.6328 46.7983 42.5283C46.0313 41.9259 45.3386 41.2375 44.7386 40.4753C43.1861 38.5146 42.2336 36.0621 42.1408 33.3945C42.1408 33.3699 42.147 33.3514 42.147 33.333C42.1408 33.2101 42.1408 33.0933 42.1408 32.9703C42.1408 32.8474 42.147 32.7245 42.147 32.6077C41.9552 28.9197 38.8873 25.9817 35.1205 25.9817C31.2362 25.9817 28.0879 29.1103 28.0879 32.9703C28.0879 36.6153 30.896 39.6087 34.4773 39.9283C34.6937 39.916 34.904 39.9098 35.1205 39.9098C35.337 39.9098 35.5535 39.916 35.7638 39.9283C37.273 39.7931 37.2668 39.7992 35.7514 39.9344C38.3554 40.0697 40.7491 41.0162 42.6727 42.5222C43.4397 43.1245 44.1324 43.8129 44.7324 44.5751C44.8376 44.4399 44.8561 44.4337 44.751 44.5628C46.3035 46.5236 47.256 48.9699 47.3488 51.6376C47.3488 51.6621 47.3426 51.6806 47.3426 51.699C47.3488 51.822 47.355 51.9387 47.355 52.0617C47.355 52.1846 47.3488 52.3075 47.3426 52.4243C47.2622 55.1104 46.3035 57.5813 44.7448 59.5605C44.1448 60.3227 43.4521 61.0111 42.6851 61.6135C40.7615 63.1194 38.374 64.066 35.7638 64.2012C35.5535 64.2135 35.337 64.2196 35.1205 64.2196C34.904 64.2196 34.6876 64.2135 34.4773 64.2012C30.896 64.527 28.0879 67.5142 28.0879 71.1591C28.0879 74.8041 30.896 77.7975 34.4773 78.1171C34.6876 78.1048 34.904 78.0986 35.1205 78.0986C35.337 78.0986 35.5535 78.1048 35.7638 78.1171C38.3678 78.2523 40.7615 79.1989 42.6851 80.7048C43.4335 81.2949 44.1139 81.9649 44.7015 82.7086C44.6953 82.7147 44.6891 82.7209 44.6891 82.727C46.2478 84.7062 47.2065 87.171 47.2869 89.8632C47.2993 89.5989 47.3364 89.3408 47.3797 89.0826L47.3859 89.1256C47.3302 89.4883 47.2931 89.8571 47.2931 90.232C47.2931 94.0921 50.4414 97.2207 54.3257 97.2207C58.0864 97.2207 61.1604 94.2888 61.3522 90.5947C61.346 90.4718 61.3398 90.355 61.3398 90.232L61.3645 89.6666C61.3707 89.7403 61.3893 89.8141 61.3893 89.8878C61.4697 87.2018 62.4284 84.7308 63.9871 82.7516L63.9933 82.7578C64.5994 81.9894 65.2922 81.301 66.0592 80.6987C67.9828 79.1927 70.3703 78.2462 72.9805 78.1109C73.1908 78.0987 73.4072 78.0925 73.6237 78.0925C73.8402 78.0925 74.0567 78.0987 74.267 78.1109C77.7307 77.7975 80.4646 74.9946 80.644 71.5156C80.6378 71.3927 80.6378 71.2759 80.6378 71.153C80.6316 71.0424 80.6378 70.9256 80.644 70.8026ZM66.5911 71.2821C66.5663 74.0665 65.5953 76.6173 63.9933 78.658C63.3871 79.4263 62.6944 80.1147 61.9274 80.7171C62.2738 80.9876 62.5954 81.2764 62.9047 81.5838C62.5954 81.2826 62.2676 80.9876 61.9274 80.7171C60.0224 82.2107 57.6596 83.1512 55.0865 83.2987C55.0432 83.2925 55.0061 83.2864 54.969 83.2802C54.7525 83.2925 54.5422 83.2987 54.3257 83.2987C54.1092 83.2987 53.8928 83.2925 53.6825 83.2802C53.3361 83.311 53.0021 83.3724 52.6743 83.4523H52.6495C52.9835 83.3724 53.3175 83.311 53.6701 83.2802C51.0847 83.145 48.7157 82.2107 46.7983 80.7232L46.8045 80.7171C46.0375 80.1147 45.3447 79.4263 44.7448 78.6641C43.1861 76.6849 42.2274 74.2202 42.147 71.5279C42.1408 71.405 42.1408 71.2882 42.1408 71.1653C42.1408 71.0424 42.147 70.9194 42.147 70.8026C42.2274 68.1166 43.1861 65.6457 44.7448 63.6664C45.3447 62.9043 46.0375 62.2158 46.8045 61.6135C48.7281 60.1076 51.1156 59.161 53.7258 59.0258C53.9422 59.0135 54.1525 59.0073 54.369 59.0073C54.5855 59.0073 54.802 59.0135 55.0123 59.0258C57.6163 59.161 60.01 60.1076 61.9336 61.6135C62.7006 62.2158 63.3933 62.9043 63.9995 63.6726C65.6076 65.7071 66.5725 68.2641 66.5973 71.0485C66.5973 71.0854 66.5973 71.1284 66.5973 71.1653C66.5911 71.2083 66.5911 71.2452 66.5911 71.2821Z" fill="white"/>
</svg>
