<svg width="173" height="173" viewBox="0 0 173 173" fill="none" xmlns="http://www.w3.org/2000/svg">
<path d="M74.3877 150.453L72.0951 150.026L70.2708 159.823L70.2193 160.821L70.0247 160.785L66.2122 148.93L63.487 148.423L60.7889 162.914L63.0598 163.337L64.8841 153.539L64.9355 152.542L65.1302 152.578L68.9644 164.436L71.6895 164.944L74.3877 150.453Z" fill="black"/>
<path d="M55.3417 143.192L52.6489 141.888L41.9465 153.082L44.2037 154.175L52.7448 144.818L52.8834 144.886L50.8761 157.407L53.1926 158.529L55.3417 143.192Z" fill="black"/>
<path d="M31.0156 140.552L29.6116 142.159L36.5203 148.195L46.2183 137.094L39.3096 131.059L37.9055 132.666L43.0746 137.182L40.2811 140.379L35.7415 136.413L34.352 138.004L38.8915 141.97L36.1848 145.068L31.0156 140.552Z" fill="black"/>
<path d="M33.4121 124.461C31.5896 121.763 28.9608 120.936 26.8096 122.39C22.3249 125.419 28.3096 131.252 25.5567 133.112C24.554 133.789 23.2998 133.229 22.4624 131.99C21.5634 130.659 21.6341 129.231 22.6732 128.529L22.8738 128.393L21.5069 126.37L21.2881 126.517C19.2645 127.884 19.0484 130.473 20.797 133.062C22.5087 135.596 24.9976 136.49 27.1123 135.061C31.4877 132.106 25.6124 126.198 28.4017 124.314C29.4773 123.588 30.8601 124.22 31.7591 125.551C32.7442 127.009 32.6681 128.547 31.5014 129.335L31.2461 129.508L32.6253 131.55L32.8623 131.39C35.0136 129.936 35.247 127.177 33.4121 124.461Z" fill="black"/>
<path d="M11.8562 113.911L16.6725 123.408L18.5953 122.433L16.7047 118.705L27.9278 113.013L26.883 110.953L15.6598 116.645L13.7791 112.936L11.8562 113.911Z" fill="black"/>
<path d="M21.7256 83.6266L21.6724 81.2952L6.93626 81.6315L6.98947 83.9629L21.7256 83.6266Z" fill="black"/>
<path d="M20.979 78.0637L21.4289 75.7755L11.6501 73.8531L10.6532 73.7917L10.6914 73.5974L22.5832 69.9039L23.1179 67.184L8.65473 64.3407L8.20914 66.6073L17.988 68.5297L18.9848 68.5911L18.9466 68.7854L7.05059 72.5005L6.51588 75.2204L20.979 78.0637Z" fill="black"/>
<path d="M44.3534 33.0035L46.1266 31.1377L32.1682 24.4284L29.9404 26.7727L37.3518 40.3713L39.0643 38.5692L37.3055 35.5018L41.1852 31.4192L44.3534 33.0035ZM36.23 33.5995L32.6463 27.3107L32.7675 27.1831L39.2459 30.426L36.23 33.5995Z" fill="black"/>
<path d="M53.9188 25.4714L56.1962 24.0098L50.5342 21.1345C51.7686 19.6364 51.8283 17.6114 50.6044 15.7043C49.0478 13.2789 46.4944 12.7218 44.1245 14.2427L38.9218 17.5817L46.8831 29.9868L48.8457 28.7272L46.0295 24.3392L48.6957 22.6281L53.9188 25.4714ZM42.0489 18.1366L45.1038 16.176C46.4184 15.3324 47.8167 15.6374 48.6841 16.989C49.5516 18.3406 49.2465 19.7389 47.9319 20.5826L44.8769 22.5432L42.0489 18.1366Z" fill="black"/>
<path d="M62.4412 6.87478L52.5952 10.9288L53.416 12.9224L57.2812 11.331L62.0724 22.9672L64.2084 22.0877L59.4172 10.4515L63.2621 8.8684L62.4412 6.87478Z" fill="black"/>
<path d="M98.7733 21.5327L101.501 22.2343L107.094 12.5879L107.244 12.6262L107.488 23.7746L110.215 24.4762L117.68 11.1768L115.272 10.5574L109.651 21.1054L109.502 21.0671L109.307 9.02258L107.112 8.45798L101.15 18.9183L101.001 18.8799L101.146 6.92317L98.6534 6.28184L98.7733 21.5327Z" fill="black"/>
<path d="M114.972 26.0973L117.084 27.0871L123.34 13.7406L121.228 12.7509L114.972 26.0973Z" fill="black"/>
<path d="M136.367 22.6837L127.629 16.5978L126.397 18.3669L129.827 20.756L122.634 31.082L124.53 32.4023L131.722 22.0763L135.134 24.4529L136.367 22.6837Z" fill="black"/>
<path d="M146.801 32.3463L142.172 36.5099L138.215 32.1099L142.844 27.9464L141.284 26.2125L130.325 36.0698L131.885 37.8036L136.612 33.5518L140.57 37.9518L135.842 42.2036L137.402 43.9374L148.361 34.0802L146.801 32.3463Z" fill="black"/>
<path d="M150.68 75.5987L151.329 78.0897L164.396 69.7772L163.581 66.6475L148.119 65.7626L148.746 68.1684L152.279 68.2942L153.698 73.7445L150.68 75.5987ZM154.463 68.385L161.696 68.6615L161.74 68.8318L155.566 72.6218L154.463 68.385Z" fill="black"/>
<path d="M151.545 92.7044L151.42 95.4074L157.041 92.4529C157.548 94.3264 159.166 95.5467 161.429 95.6518C164.308 95.7854 166.24 94.0251 166.37 91.2121L166.657 85.0368L151.933 84.3533L151.825 86.6828L157.033 86.9246L156.886 90.0892L151.545 92.7044ZM164.395 87.2663L164.227 90.8924C164.154 92.4527 163.097 93.4167 161.492 93.3423C159.888 93.2678 158.924 92.21 158.996 90.6496L159.165 87.0235L164.395 87.2663Z" fill="black"/>
<path d="M164.379 109.107L166.451 98.6627L164.336 98.2431L163.523 102.343L151.179 99.894L150.73 102.16L163.073 104.609L162.264 108.687L164.379 109.107Z" fill="black"/>
<path d="M146.071 112.244C145.17 115.372 146.222 117.919 148.717 118.638C153.917 120.136 154.555 111.803 157.747 112.723C158.91 113.058 159.285 114.379 158.871 115.817C158.426 117.36 157.285 118.222 156.08 117.875L155.847 117.808L155.171 120.154L155.425 120.227C157.771 120.903 159.896 119.409 160.761 116.407C161.608 113.469 160.697 110.986 158.245 110.279C153.172 108.817 152.407 117.114 149.172 116.182C147.925 115.823 147.523 114.356 147.968 112.813C148.455 111.122 149.684 110.194 151.037 110.584L151.333 110.669L152.015 108.301L151.741 108.222C149.246 107.503 146.979 109.094 146.071 112.244Z" fill="black"/>
<path d="M151.433 132.791L154.532 127.983L142.142 119.997L140.879 121.957L144.892 124.544L143.056 127.391C141.447 129.888 142.044 132.576 144.577 134.209C147.111 135.842 149.824 135.287 151.433 132.791ZM144.945 128.4L146.685 125.7L151.456 128.775L149.716 131.475C148.798 132.899 147.29 133.209 145.829 132.267C144.368 131.326 144.027 129.823 144.945 128.4Z" fill="black"/>
<path d="M134.591 134.892L143.411 143.868L145.074 142.233L134.743 131.72L128.514 137.841L130.025 139.379L134.591 134.892Z" fill="black"/>
<path d="M124.849 141.215L123.008 142.647L132.06 154.28L133.9 152.848L124.849 141.215Z" fill="black"/>
<path d="M84.4232 151.002L82.0953 150.865L81.2267 165.579L83.5546 165.717L84.4232 151.002Z" fill="black"/>
<path d="M115.835 162.417L125.105 157.178L124.044 155.301L120.405 157.358L114.214 146.402L112.203 147.539L118.394 158.494L114.774 160.54L115.835 162.417Z" fill="black"/>
<circle cx="21.4153" cy="49.0648" r="3.40111" fill="#E20A37"/>
<circle cx="79.1044" cy="9.45735" r="3.40111" fill="#E20A37"/>
<circle cx="153.194" cy="49.2986" r="3.40111" fill="#E20A37"/>
<circle cx="100.139" cy="160.215" r="3.40111" fill="#E20A37"/>
<circle cx="12.805" cy="100.727" r="3.40111" fill="#E20A37"/>
<circle cx="88" cy="86.2268" r="10" fill="black"/>
</svg>
