<svg width="173" height="173" viewBox="0 0 173 173" fill="none" xmlns="http://www.w3.org/2000/svg">
<path d="M74.388 150.453L72.0954 150.026L70.2711 159.823L70.2197 160.821L70.025 160.785L66.2125 148.93L63.4873 148.423L60.7892 162.914L63.0602 163.337L64.8844 153.539L64.9359 152.542L65.1305 152.578L68.9647 164.436L71.6899 164.944L74.388 150.453Z" fill="white"/>
<path d="M55.3418 143.192L52.6491 141.888L41.9467 153.082L44.2038 154.175L52.7449 144.818L52.8835 144.886L50.8762 157.407L53.1928 158.529L55.3418 143.192Z" fill="white"/>
<path d="M31.0154 140.552L29.6114 142.159L36.5201 148.195L46.218 137.094L39.3093 131.059L37.9053 132.666L43.0744 137.182L40.2808 140.379L35.7413 136.413L34.3517 138.004L38.8913 141.97L36.1845 145.068L31.0154 140.552Z" fill="white"/>
<path d="M33.4119 124.461C31.5893 121.763 28.9605 120.936 26.8093 122.39C22.3246 125.419 28.3093 131.252 25.5564 133.112C24.5538 133.789 23.2995 133.229 22.4621 131.99C21.5632 130.659 21.6338 129.231 22.673 128.529L22.8735 128.393L21.5066 126.37L21.2878 126.517C19.2642 127.884 19.0481 130.473 20.7967 133.062C22.5084 135.596 24.9973 136.49 27.112 135.061C31.4874 132.106 25.6121 126.198 28.4014 124.314C29.477 123.588 30.8598 124.22 31.7588 125.551C32.7439 127.009 32.6679 128.547 31.5011 129.335L31.2459 129.508L32.6251 131.55L32.8621 131.39C35.0133 129.936 35.2467 127.177 33.4119 124.461Z" fill="white"/>
<path d="M11.8566 113.911L16.6729 123.408L18.5957 122.433L16.705 118.705L27.9282 113.013L26.8833 110.953L15.6602 116.645L13.7795 112.936L11.8566 113.911Z" fill="white"/>
<path d="M21.7258 83.6266L21.6726 81.2952L6.93639 81.6315L6.98959 83.9629L21.7258 83.6266Z" fill="white"/>
<path d="M20.979 78.0637L21.4289 75.7755L11.6501 73.8531L10.6532 73.7916L10.6914 73.5973L22.5832 69.9039L23.1179 67.1839L8.65473 64.3406L8.20914 66.6072L17.988 68.5297L18.9848 68.5911L18.9466 68.7854L7.05059 72.5004L6.51588 75.2204L20.979 78.0637Z" fill="white"/>
<path d="M44.3533 33.0035L46.1264 31.1377L32.1681 24.4284L29.9403 26.7727L37.3516 40.3713L39.0642 38.5692L37.3054 35.5018L41.1851 31.4192L44.3533 33.0035ZM36.2299 33.5995L32.6461 27.3107L32.7674 27.1831L39.2457 30.426L36.2299 33.5995Z" fill="white"/>
<path d="M53.9186 25.4714L56.1959 24.0098L50.534 21.1344C51.7684 19.6364 51.8281 17.6114 50.6042 15.7043C49.0476 13.2788 46.4942 12.7217 44.1243 14.2427L38.9216 17.5817L46.8829 29.9867L48.8455 28.7272L46.0293 24.3391L48.6955 22.628L53.9186 25.4714ZM42.0487 18.1366L45.1036 16.176C46.4182 15.3323 47.8165 15.6374 48.6839 16.989C49.5513 18.3406 49.2462 19.7389 47.9317 20.5826L44.8767 22.5432L42.0487 18.1366Z" fill="white"/>
<path d="M62.4411 6.87478L52.5951 10.9288L53.4159 12.9224L57.2811 11.331L62.0722 22.9672L64.2083 22.0877L59.4171 10.4515L63.262 8.8684L62.4411 6.87478Z" fill="white"/>
<path d="M98.7738 21.5327L101.501 22.2343L107.095 12.5879L107.244 12.6262L107.488 23.7746L110.215 24.4762L117.68 11.1768L115.273 10.5574L109.651 21.1054L109.502 21.0671L109.307 9.02258L107.112 8.45798L101.15 18.9183L101.001 18.8799L101.147 6.92317L98.6538 6.28184L98.7738 21.5327Z" fill="white"/>
<path d="M114.972 26.0973L117.083 27.0871L123.339 13.7406L121.228 12.7509L114.972 26.0973Z" fill="white"/>
<path d="M136.366 22.6837L127.629 16.5978L126.397 18.3669L129.827 20.756L122.634 31.082L124.53 32.4022L131.722 22.0763L135.134 24.4528L136.366 22.6837Z" fill="white"/>
<path d="M146.801 32.3463L142.172 36.5099L138.214 32.1099L142.843 27.9464L141.284 26.2125L130.325 36.0698L131.884 37.8036L136.612 33.5518L140.569 37.9518L135.842 42.2036L137.402 43.9374L148.361 34.0802L146.801 32.3463Z" fill="white"/>
<path d="M150.68 75.5987L151.329 78.0897L164.396 69.7772L163.581 66.6475L148.119 65.7626L148.746 68.1684L152.279 68.2942L153.698 73.7445L150.68 75.5987ZM154.463 68.385L161.696 68.6615L161.74 68.8318L155.566 72.6218L154.463 68.385Z" fill="white"/>
<path d="M151.545 92.7044L151.42 95.4074L157.041 92.4529C157.548 94.3264 159.166 95.5467 161.429 95.6518C164.308 95.7854 166.24 94.0251 166.37 91.2121L166.657 85.0368L151.933 84.3533L151.825 86.6828L157.033 86.9246L156.886 90.0892L151.545 92.7044ZM164.395 87.2663L164.227 90.8924C164.154 92.4527 163.097 93.4167 161.492 93.3423C159.888 93.2678 158.924 92.21 158.996 90.6496L159.165 87.0235L164.395 87.2663Z" fill="white"/>
<path d="M164.379 109.107L166.451 98.6627L164.337 98.2431L163.523 102.343L151.18 99.894L150.73 102.16L163.073 104.609L162.264 108.687L164.379 109.107Z" fill="white"/>
<path d="M146.071 112.244C145.17 115.372 146.222 117.919 148.716 118.638C153.917 120.136 154.555 111.803 157.747 112.723C158.91 113.058 159.284 114.379 158.87 115.817C158.426 117.36 157.284 118.222 156.079 117.875L155.847 117.808L155.171 120.154L155.424 120.227C157.771 120.903 159.896 119.409 160.761 116.407C161.607 113.469 160.697 110.986 158.245 110.279C153.171 108.817 152.406 117.114 149.172 116.182C147.925 115.823 147.523 114.356 147.968 112.813C148.455 111.122 149.684 110.194 151.037 110.584L151.333 110.669L152.015 108.301L151.74 108.222C149.246 107.503 146.979 109.094 146.071 112.244Z" fill="white"/>
<path d="M151.433 132.791L154.532 127.983L142.143 119.997L140.879 121.957L144.892 124.544L143.057 127.391C141.448 129.888 142.044 132.576 144.578 134.209C147.111 135.842 149.824 135.287 151.433 132.791ZM144.946 128.4L146.686 125.7L151.457 128.775L149.716 131.475C148.799 132.899 147.29 133.209 145.829 132.267C144.368 131.326 144.028 129.823 144.946 128.4Z" fill="white"/>
<path d="M134.591 134.892L143.411 143.868L145.074 142.233L134.743 131.72L128.513 137.841L130.025 139.379L134.591 134.892Z" fill="white"/>
<path d="M124.849 141.215L123.009 142.647L132.06 154.28L133.9 152.848L124.849 141.215Z" fill="white"/>
<path d="M84.4231 151.002L82.0951 150.865L81.2265 165.579L83.5544 165.717L84.4231 151.002Z" fill="white"/>
<path d="M115.835 162.417L125.105 157.178L124.044 155.301L120.405 157.358L114.214 146.402L112.203 147.539L118.394 158.494L114.774 160.54L115.835 162.417Z" fill="white"/>
<circle cx="21.4158" cy="49.0648" r="3.40111" fill="#E20A37"/>
<circle cx="79.1042" cy="9.45732" r="3.40111" fill="#E20A37"/>
<circle cx="153.193" cy="49.2986" r="3.40111" fill="#E20A37"/>
<circle cx="100.139" cy="160.215" r="3.40111" fill="#E20A37"/>
<circle cx="12.8054" cy="100.727" r="3.40111" fill="#E20A37"/>
<circle cx="88" cy="86.2268" r="10" fill="white"/>
</svg>
