<svg width="173" height="173" viewBox="0 0 173 173" fill="none" xmlns="http://www.w3.org/2000/svg">
<path d="M74.388 150.453L72.0954 150.026L70.2711 159.823L70.2197 160.821L70.025 160.785L66.2125 148.93L63.4873 148.423L60.7892 162.914L63.0602 163.337L64.8844 153.539L64.9359 152.542L65.1305 152.578L68.9647 164.436L71.6899 164.944L74.388 150.453Z" fill="black"/>
<path d="M55.3418 143.192L52.6491 141.888L41.9467 153.082L44.2038 154.175L52.7449 144.818L52.8835 144.886L50.8762 157.407L53.1928 158.529L55.3418 143.192Z" fill="black"/>
<path d="M31.0154 140.552L29.6114 142.159L36.5201 148.195L46.218 137.094L39.3093 131.059L37.9053 132.666L43.0744 137.182L40.2808 140.379L35.7413 136.413L34.3517 138.004L38.8913 141.97L36.1845 145.068L31.0154 140.552Z" fill="black"/>
<path d="M33.4119 124.461C31.5893 121.763 28.9605 120.936 26.8093 122.39C22.3246 125.419 28.3093 131.252 25.5564 133.112C24.5538 133.789 23.2995 133.229 22.4621 131.99C21.5632 130.659 21.6338 129.231 22.673 128.529L22.8735 128.393L21.5066 126.37L21.2878 126.517C19.2642 127.884 19.0481 130.473 20.7967 133.062C22.5084 135.596 24.9973 136.49 27.112 135.061C31.4874 132.106 25.6121 126.198 28.4014 124.314C29.477 123.588 30.8598 124.22 31.7588 125.551C32.7439 127.009 32.6679 128.547 31.5011 129.335L31.2459 129.508L32.6251 131.55L32.8621 131.39C35.0133 129.936 35.2467 127.177 33.4119 124.461Z" fill="black"/>
<path d="M11.8556 113.911L16.6719 123.408L18.5947 122.433L16.704 118.705L27.9272 113.013L26.8823 110.953L15.6592 116.645L13.7785 112.936L11.8556 113.911Z" fill="black"/>
<path d="M21.7258 83.6266L21.6726 81.2952L6.93639 81.6315L6.98959 83.9629L21.7258 83.6266Z" fill="black"/>
<path d="M20.979 78.0637L21.4289 75.7755L11.6501 73.8531L10.6532 73.7917L10.6914 73.5974L22.5832 69.9039L23.1179 67.184L8.65473 64.3407L8.20914 66.6073L17.988 68.5297L18.9848 68.5911L18.9466 68.7854L7.05059 72.5005L6.51588 75.2204L20.979 78.0637Z" fill="black"/>
<path d="M44.3533 33.0035L46.1264 31.1377L32.1681 24.4284L29.9403 26.7727L37.3516 40.3713L39.0642 38.5692L37.3054 35.5018L41.1851 31.4192L44.3533 33.0035ZM36.2299 33.5995L32.6461 27.3107L32.7674 27.1831L39.2457 30.426L36.2299 33.5995Z" fill="black"/>
<path d="M53.9196 25.4714L56.1969 24.0098L50.535 21.1345C51.7694 19.6364 51.8291 17.6114 50.6052 15.7043C49.0486 13.2789 46.4952 12.7218 44.1253 14.2427L38.9226 17.5817L46.8839 29.9868L48.8465 28.7272L46.0303 24.3392L48.6965 22.6281L53.9196 25.4714ZM42.0496 18.1366L45.1046 16.176C46.4192 15.3324 47.8175 15.6374 48.6849 16.989C49.5523 18.3406 49.2472 19.7389 47.9327 20.5826L44.8777 22.5432L42.0496 18.1366Z" fill="black"/>
<path d="M62.4411 6.87478L52.5951 10.9288L53.4159 12.9224L57.2811 11.331L62.0722 22.9672L64.2083 22.0877L59.4171 10.4515L63.262 8.8684L62.4411 6.87478Z" fill="black"/>
<path d="M98.7738 21.5327L101.501 22.2343L107.095 12.5879L107.244 12.6262L107.488 23.7746L110.215 24.4762L117.68 11.1768L115.273 10.5574L109.651 21.1054L109.502 21.0671L109.307 9.02258L107.112 8.45798L101.15 18.9183L101.001 18.8799L101.147 6.92317L98.6538 6.28184L98.7738 21.5327Z" fill="black"/>
<path d="M114.973 26.0973L117.084 27.0871L123.34 13.7406L121.229 12.7509L114.973 26.0973Z" fill="black"/>
<path d="M136.366 22.6837L127.629 16.5978L126.397 18.3669L129.827 20.756L122.634 31.082L124.53 32.4023L131.722 22.0763L135.134 24.4529L136.366 22.6837Z" fill="black"/>
<path d="M146.802 32.3463L142.173 36.5099L138.215 32.1099L142.844 27.9464L141.285 26.2125L130.326 36.0698L131.885 37.8036L136.612 33.5518L140.57 37.9518L135.843 42.2036L137.402 43.9374L148.362 34.0802L146.802 32.3463Z" fill="black"/>
<path d="M150.681 75.5987L151.33 78.0897L164.397 69.7772L163.582 66.6475L148.12 65.7626L148.747 68.1684L152.28 68.2942L153.699 73.7445L150.681 75.5987ZM154.464 68.385L161.697 68.6615L161.741 68.8318L155.567 72.6218L154.464 68.385Z" fill="black"/>
<path d="M151.545 92.7044L151.42 95.4074L157.041 92.4529C157.548 94.3264 159.166 95.5467 161.429 95.6518C164.308 95.7854 166.24 94.0251 166.37 91.2121L166.657 85.0368L151.933 84.3533L151.825 86.6828L157.033 86.9246L156.886 90.0892L151.545 92.7044ZM164.395 87.2663L164.227 90.8924C164.154 92.4527 163.097 93.4167 161.492 93.3423C159.888 93.2678 158.924 92.21 158.996 90.6496L159.165 87.0235L164.395 87.2663Z" fill="black"/>
<path d="M164.379 109.107L166.451 98.6627L164.337 98.2431L163.523 102.343L151.18 99.894L150.73 102.16L163.073 104.609L162.264 108.687L164.379 109.107Z" fill="black"/>
<path d="M146.071 112.244C145.17 115.372 146.222 117.919 148.716 118.638C153.917 120.136 154.555 111.803 157.747 112.723C158.91 113.058 159.284 114.379 158.87 115.817C158.426 117.36 157.284 118.222 156.079 117.875L155.847 117.808L155.171 120.154L155.424 120.227C157.771 120.903 159.896 119.409 160.761 116.407C161.607 113.469 160.697 110.986 158.245 110.279C153.171 108.817 152.406 117.114 149.172 116.182C147.925 115.823 147.523 114.356 147.968 112.813C148.455 111.122 149.684 110.194 151.037 110.584L151.333 110.669L152.015 108.301L151.74 108.222C149.246 107.503 146.979 109.094 146.071 112.244Z" fill="black"/>
<path d="M151.432 132.791L154.531 127.983L142.142 119.997L140.879 121.957L144.891 124.544L143.056 127.391C141.447 129.888 142.043 132.576 144.577 134.209C147.11 135.842 149.823 135.287 151.432 132.791ZM144.945 128.4L146.685 125.7L151.456 128.775L149.715 131.475C148.798 132.899 147.289 133.209 145.828 132.267C144.367 131.326 144.027 129.823 144.945 128.4Z" fill="black"/>
<path d="M134.592 134.892L143.412 143.868L145.075 142.233L134.744 131.72L128.514 137.841L130.026 139.379L134.592 134.892Z" fill="black"/>
<path d="M124.848 141.215L123.008 142.647L132.059 154.28L133.899 152.848L124.848 141.215Z" fill="black"/>
<path d="M84.424 151.002L82.0961 150.865L81.2275 165.579L83.5554 165.717L84.424 151.002Z" fill="black"/>
<path d="M115.834 162.417L125.104 157.178L124.043 155.301L120.404 157.358L114.213 146.402L112.202 147.539L118.393 158.494L114.773 160.54L115.834 162.417Z" fill="black"/>
<circle cx="21.4148" cy="49.0648" r="3.40111" fill="#E20A37"/>
<circle cx="79.1042" cy="9.45735" r="3.40111" fill="#E20A37"/>
<circle cx="153.194" cy="49.2986" r="3.40111" fill="#E20A37"/>
<circle cx="100.139" cy="160.215" r="3.40111" fill="#E20A37"/>
<circle cx="12.8054" cy="100.727" r="3.40111" fill="#E20A37"/>
<circle cx="88" cy="86.2268" r="10" fill="black"/>
</svg>
