<svg id="Layer_1" data-name="Layer 1" xmlns="http://www.w3.org/2000/svg" viewBox="0 0 240.5 118.97"><defs><style>.cls-1{fill:#cc9169;}.cls-2{fill:none;}.cls-3{fill:#fff;}</style></defs><title>LOGOS</title><polygon class="cls-1" points="170.31 52.75 182.18 52.24 191.06 15.91 179.33 15.91 170.31 52.75"/><polygon class="cls-1" points="169.45 104.35 181.13 56.56 169.25 57.07 157.66 104.35 169.45 104.35"/><path class="cls-2" d="M96,79.68a8.12,8.12,0,0,0,2.36-6.28A7.79,7.79,0,0,0,96,67.32a9.68,9.68,0,0,0-6.7-2.13h-9V81.85h9A9.59,9.59,0,0,0,96,79.68Z"/><path d="M56,101.33a15,15,0,0,0,2.87-9.26,13.91,13.91,0,0,0-2.63-8.79,16.35,16.35,0,0,0-6.32-5A74.34,74.34,0,0,0,40.6,75c-2.53-.77-4.44-1.41-5.73-1.9a10,10,0,0,1-3.26-1.93,3.88,3.88,0,0,1-1.32-3,3.13,3.13,0,0,1,1.52-2.82,7.55,7.55,0,0,1,4.14-1A27.36,27.36,0,0,1,44.2,66a47.86,47.86,0,0,1,9.26,4.19l3.93-8.32-40.9,1.77a15.73,15.73,0,0,0-1.07,5.85A13.23,13.23,0,0,0,18,78.09a16.31,16.31,0,0,0,6.23,4.8A70.64,70.64,0,0,0,33.47,86q3.72,1,5.77,1.74a9.86,9.86,0,0,1,3.41,2A4,4,0,0,1,44,92.85a3.8,3.8,0,0,1-1.82,3.41,9.3,9.3,0,0,1-5,1.16,26.52,26.52,0,0,1-9.95-2.33,34.17,34.17,0,0,1-9.73-6L12,100.21a34.85,34.85,0,0,0,6.24,4.14H53A15.72,15.72,0,0,0,56,101.33Z"/><path d="M89.94,93.16q10.38,0,16.12-5.31t5.73-14.91c0-5.53-1.62-9.92-4.83-13.17L66.08,61.53v42.82H80.26V93.16Zm-9.68-28h9A9.68,9.68,0,0,1,96,67.32a7.79,7.79,0,0,1,2.36,6.08A8.12,8.12,0,0,1,96,79.68a9.59,9.59,0,0,1-6.7,2.17h-9Z"/><polygon points="132.94 96.1 132.94 58.64 118.76 59.26 118.76 104.35 155.94 104.35 155.94 96.1 132.94 96.1"/><polygon points="182.36 65.58 198.47 65.58 198.47 104.35 212.65 104.35 212.65 65.58 228.92 65.58 228.92 54.49 182.36 56.5 182.36 65.58"/><polygon points="38.97 58.34 40.81 58.34 46.88 58.07 58.57 33.66 58.62 57.57 69.32 57.1 69.32 16.7 56.19 16.7 42.86 43.76 29.47 16.7 16.34 16.7 16.34 59.39 27.09 58.93 27.09 33.66 38.97 58.34"/><path d="M77.5,16.7V43.89a20.65,20.65,0,0,0,2.61,10.52,17.21,17.21,0,0,0,1.47,2.17l34.94-1.51c.14-.22.28-.43.4-.66a21,21,0,0,0,2.54-10.52V16.7H107.39V43.89a9.91,9.91,0,0,1-2.41,7,8.19,8.19,0,0,1-6.3,2.61,8.72,8.72,0,0,1-6.53-2.64,9.57,9.57,0,0,1-2.58-7V16.7Z"/><path d="M135.92,17.53a14.5,14.5,0,0,0-6.46,5A12.72,12.72,0,0,0,127.18,30a11.26,11.26,0,0,0,2.21,7.29,13.93,13.93,0,0,0,5.31,4.09,61.49,61.49,0,0,0,7.85,2.67c2.12.58,3.75,1.07,4.92,1.49a8.52,8.52,0,0,1,2.9,1.68,3.44,3.44,0,0,1,1.16,2.64,3.23,3.23,0,0,1-1.55,2.9,7.9,7.9,0,0,1-4.26,1,22.62,22.62,0,0,1-8.48-2A29.07,29.07,0,0,1,129,46.72l-4,8L163.71,53a14.43,14.43,0,0,0,.49-3.8A11.8,11.8,0,0,0,162,41.74a13.85,13.85,0,0,0-5.38-4.25,61.48,61.48,0,0,0-7.95-2.77q-3.23-1-4.88-1.62A8.67,8.67,0,0,1,141,31.45a3.29,3.29,0,0,1-1.12-2.54,2.68,2.68,0,0,1,1.29-2.41,6.47,6.47,0,0,1,3.53-.82,23.25,23.25,0,0,1,7,1.38,41.07,41.07,0,0,1,7.89,3.56L164.13,21a32.72,32.72,0,0,0-8.58-3.79,35.73,35.73,0,0,0-7-1.29h-5.83A23.12,23.12,0,0,0,135.92,17.53Z"/><path d="M221.1,50.55l6.24-.27-2.51-2.7A19.09,19.09,0,0,1,221.1,50.55Z"/><path d="M207,28a12.06,12.06,0,0,1,6.37-1.75,12.79,12.79,0,0,1,6.13,1.69,17.28,17.28,0,0,1,5.35,4.52l7-8.45a25.25,25.25,0,0,0-8.51-5.84,26.34,26.34,0,0,0-22.8,1,23,23,0,0,0-12.1,20.65,24.16,24.16,0,0,0,3.07,12.1l15.39-.66a12.43,12.43,0,0,1-4.41-4.74,15,15,0,0,1,0-13.66A12.42,12.42,0,0,1,207,28Z"/><path class="cls-3" d="M142.74,15.91h5.83c-1-.08-1.94-.13-2.91-.13S143.68,15.83,142.74,15.91Z"/></svg>